<svg width="40" height="40" xmlns="http://www.w3.org/2000/svg" fill="#828282"><path stroke="null" d="M39.896 20.079c0 2.718-.055 5.814.016 8.533.117 4.812-3.276 8.457-7.127 10.113-1.547.664-3.172 1.164-4.852 1.164-5.258.007-10.597.078-15.855-.024-3.96-.078-7.661-1.66-9.997-4.926C.854 33.22.268 30.824.268 28.707c0-5.601-.074-11.27-.074-16.87 0-4.57 2.374-8.283 6.328-10.361C8.24.578 10.477.121 12.422.113c5.101 0 10.21-.031 15.312.016C31.695.16 35.37 1.823 37.806 5.01c1.36 1.781 2.016 4.197 2.016 6.447 0 2.844.074 5.769.074 8.62zm-36.302 0v8.593c0 1.282.297 2.485.96 3.57 1.743 2.852 4.376 4.243 7.641 4.298 5.242.078 10.492.03 15.742.015a8.54 8.54 0 003.704-.82c3.172-1.516 4.945-3.93 4.93-7.555-.032-5.547-.008-11.094-.008-16.64 0-1.57-.446-3.008-1.376-4.274-1.796-2.43-4.28-3.625-7.25-3.656-5.234-.063-10.468-.024-15.703-.016-1.117 0-2.195.227-3.242.617-2.875 1.07-5.547 3.782-5.422 7.774.094 2.703.024 5.398.024 8.094z"/><path d="M20.125 28.36c-5.039 0-9.102-4.016-9.11-9.016-.007-4.922 4.087-8.953 9.094-8.953 5.024-.008 9.102 4.015 9.11 8.976 0 4.953-4.07 8.985-9.094 8.992zm0-2.891c3.43 0 6.211-2.742 6.203-6.117-.008-3.344-2.789-6.079-6.203-6.079-3.43 0-6.226 2.727-6.226 6.094.007 3.375 2.796 6.11 6.226 6.102zM30.273 7.656c1.055 0 1.915.899 1.915 2-.008 1.102-.875 1.992-1.93 1.985-1.04-.008-1.89-.899-1.89-1.977-.009-1.102.85-2.008 1.905-2.008z"/></svg>