<svg width="69" height="70" fill="none" xmlns="http://www.w3.org/2000/svg"><path d="M67.699 31.43L37.573 1.303a4.444 4.444 0 00-6.284 0L25.033 7.56l7.936 7.936a5.275 5.275 0 016.683 6.727l7.648 7.649a5.286 5.286 0 015.463 8.732 5.287 5.287 0 01-8.63-5.75L37 25.72v18.77a5.288 5.288 0 11-4.348-.154V25.392a5.222 5.222 0 01-1.731-1.154 5.286 5.286 0 01-1.14-5.78l-7.822-7.824L1.302 31.29a4.445 4.445 0 000 6.286L31.429 67.7a4.444 4.444 0 006.284 0l29.986-29.985a4.447 4.447 0 000-6.287" fill="#DE4C36"/></svg>