<svg width="130" height="22" fill="none" xmlns="http://www.w3.org/2000/svg"><path d="M9.23 3.732c.302-.918 1.6-.918 1.9 0l1.11 3.383a1 1 0 00.95.688h3.571c.971 0 1.373 1.244.584 1.812l-2.871 2.066a1 1 0 00-.367 1.123l1.101 3.356c.302.92-.748 1.689-1.534 1.123l-2.91-2.093a1 1 0 00-1.167 0l-2.91 2.093c-.785.566-1.835-.204-1.534-1.123l1.101-3.356a1 1 0 00-.366-1.123L3.016 9.615c-.788-.568-.387-1.812.584-1.812h3.57a1 1 0 00.95-.688l1.11-3.383zm27.41 0c.301-.918 1.6-.918 1.9 0l1.11 3.383a1 1 0 00.95.688h3.57c.972 0 1.373 1.244.585 1.812l-2.872 2.066a1 1 0 00-.366 1.123l1.1 3.356c.303.92-.748 1.689-1.533 1.123l-2.91-2.093a1 1 0 00-1.168 0l-2.909 2.093c-.785.566-1.836-.204-1.534-1.123l1.1-3.356a1 1 0 00-.365-1.123l-2.872-2.066c-.788-.568-.387-1.812.584-1.812h3.57a1 1 0 00.95-.688l1.11-3.383zm27.41 0c.3-.918 1.599-.918 1.9 0l1.11 3.383a1 1 0 00.95.688h3.57c.971 0 1.373 1.244.584 1.812l-2.871 2.066a1 1 0 00-.367 1.123l1.101 3.356c.302.92-.748 1.689-1.534 1.123l-2.91-2.093a1 1 0 00-1.167 0l-2.91 2.093c-.785.566-1.835-.204-1.534-1.123l1.101-3.356a1 1 0 00-.366-1.123l-2.872-2.066c-.788-.568-.387-1.812.584-1.812h3.57a1 1 0 00.95-.688l1.11-3.383zm27.41 0c.3-.918 1.599-.918 1.9 0l1.11 3.383a1 1 0 00.95.688h3.57c.971 0 1.373 1.244.584 1.812l-2.871 2.066a1 1 0 00-.367 1.123l1.101 3.356c.302.92-.748 1.689-1.534 1.123l-2.91-2.093a1 1 0 00-1.167 0l-2.91 2.093c-.785.566-1.835-.204-1.534-1.123l1.101-3.356a1 1 0 00-.366-1.123l-2.872-2.066c-.788-.568-.387-1.812.584-1.812h3.57a1 1 0 00.95-.688l1.11-3.383z" fill="#070707"/><path d="M118.869 3.732c.301-.918 1.599-.918 1.9 0l1.11 3.383a1 1 0 00.95.688h3.571c.971 0 1.372 1.244.584 1.812l-2.872 2.066a1 1 0 00-.366 1.123l1.101 3.356c.301.92-.749 1.689-1.535 1.123l-2.909-2.093a1 1 0 00-1.168 0l-2.909 2.093c-.786.566-1.836-.204-1.534-1.123l1.101-3.356a1.002 1.002 0 00-.367-1.123l-2.871-2.066c-.789-.568-.387-1.812.584-1.812h3.57a1 1 0 00.95-.688l1.11-3.383z" fill="#E5E5E5"/></svg>