<svg width="39" height="39" xmlns="http://www.w3.org/2000/svg" fill="#828282"><path d="M1.04 18.537c.039-.43.117-1.258.18-2.086a1.148 1.148 0 00-.094-.586C-2.007 9.615 1.32 2.162 8.079.373c2.672-.711 5.258-.391 7.742.843.195.094.445.149.656.125 5-.554 10.257-.496 14.178 2.676 3.657 2.96 5.057 7.957 5.697 12.637.211 1.547.196 3.086.008 4.633-.031.234.024.523.14.726 3.774 6.617-.226 15-7.75 16.18-2.64.414-5.124-.094-7.421-1.477a1.12 1.12 0 00-.61-.148c-7.554.726-14.43-3.047-17.843-9.797-1.172-2.32-1.797-5.008-1.836-8.234zm2.735.406c.055 3.922 1.448 6.547 4.112 9.508 1.907 2.118 3.656 3.369 5.636 4.207 1.981.838 4.193 1.068 7.025.751.352-.039 1.05.329 1.355.532 1.219.804 2.168 1.268 3.337 1.427 1.17.16 2.382.016 3.777-.394 5.898-1.743 8.077-6.58 4.842-11.83-.172-.273-.215-1.03-.152-1.397.375-2.101.022-4.118-.447-6.204C31.44 7.52 26.023 3.134 17.468 4.33c-.453.062-2.161-.122-2.56-.333-4.172-2.274-7.85-1.46-10.546 2.454-2.18 3.172-2.22 5.357-.462 8.764.125.25.073 1.208.034 1.497-.117.906-.073 1.325-.16 2.23z"/><path d="M18.624 28.919c-1.602-.016-3.164-.211-4.648-.86-.907-.398-1.72-.93-2.391-1.656-.617-.664-.992-1.43-.992-2.351-.008-1.469 1.46-2.352 2.742-1.625.305.172.57.453.82.71.266.274.5.563.727.868 1.062 1.406 2.547 1.75 4.195 1.656.781-.039 1.508-.258 2.149-.734.734-.555 1.109-1.274.945-2.203-.156-.883-.797-1.32-1.586-1.54-1.531-.421-3.07-.796-4.61-1.18-1.203-.304-2.382-.64-3.406-1.39-1.226-.89-1.875-2.11-1.953-3.61-.14-2.765 1.07-4.71 3.703-5.679 3.18-1.172 6.313-.992 9.29.719.554.32 1.062.758 1.5 1.226.312.336.53.813.656 1.258.257.906-.008 1.586-.688 2.016-.765.484-1.734.469-2.406-.102-.445-.375-.836-.82-1.242-1.242-.453-.469-1-.789-1.625-.96-1.078-.298-2.157-.345-3.235-.04-.664.188-1.203.555-1.515 1.195-.414.836-.25 1.641.554 2.102.618.36 1.313.633 2.008.812 1.453.383 2.946.657 4.399 1.04.695.187 1.39.453 2.023.804 2.102 1.164 2.813 3.125 2.563 5.352-.29 2.539-1.946 4.32-4.649 4.992-1.078.266-2.203.352-3.305.516-.015-.024-.015-.063-.023-.094z"/></svg>