<svg width="69" height="69" fill="none" xmlns="http://www.w3.org/2000/svg"><path d="M0 0h69v69H0V0z" fill="#F0DB4F"/><path d="M63.353 52.544c-.505-3.149-2.558-5.792-8.638-8.258-2.112-.97-4.467-1.666-5.169-3.266-.249-.932-.282-1.456-.124-2.02.452-1.83 2.636-2.401 4.368-1.876 1.115.373 2.17 1.233 2.807 2.604 2.978-1.929 2.971-1.916 5.05-3.24-.76-1.181-1.167-1.725-1.666-2.23-1.79-2.001-4.23-3.03-8.133-2.952-.675.085-1.357.177-2.033.262-1.948.492-3.804 1.515-4.893 2.886-3.266 3.706-2.335 10.193 1.64 12.862 3.916 2.939 9.668 3.608 10.402 6.356.715 3.365-2.472 4.453-5.64 4.067-2.335-.486-3.634-1.673-5.038-3.83-2.584 1.495-2.584 1.495-5.24 3.023.63 1.377 1.292 2 2.348 3.194 4.998 5.07 17.506 4.82 19.749-2.853.092-.263.695-2.02.21-4.73zM37.51 31.713h-6.454c0 5.575-.027 11.11-.027 16.685 0 3.549.184 6.802-.393 7.8-.945 1.96-3.391 1.718-4.506 1.337-1.135-.557-1.712-1.351-2.381-2.473-.184-.321-.321-.57-.367-.59-1.752 1.07-3.496 2.145-5.247 3.214.872 1.79 2.157 3.345 3.804 4.355 2.46 1.476 5.765 1.928 9.222 1.135 2.25-.656 4.19-2.014 5.207-4.08 1.47-2.709 1.155-5.988 1.142-9.615.032-5.916 0-11.833 0-17.769z" fill="#323330"/></svg>