<svg width="69" height="40" fill="none" xmlns="http://www.w3.org/2000/svg"><path d="M59.398 22.97c-2.412.01-4.501.458-6.253 1.125-.647-.99-1.294-1.855-1.402-2.502-.121-.75-.27-1.209-.121-2.105.148-.897.822-2.168.822-2.273-.014-.093-.148-.552-1.537-.563-1.387-.01-2.587.209-2.722.49a9.982 9.982 0 00-.58 1.595c-.242.98-2.776 4.451-4.218 6.275-.472-.709-.876-1.334-.957-1.835-.121-.75-.27-1.209-.121-2.105.148-.896.822-2.168.822-2.272-.014-.094-.148-.553-1.536-.563-1.389-.01-2.588.208-2.723.49-.135.281-.283.948-.58 1.595-.283.646-3.652 6.441-4.528 7.953a29.716 29.716 0 01-1.119 1.803c-.283.417-.013.031-.04.073l-.378.552v.01c-.188.261-.39.511-.485.511-.067 0-.202-.698.027-1.657.499-2.012 1.712-5.149 1.698-5.264 0-.052.23-.604-.782-.886-.983-.281-1.334.188-1.415.188-.08 0-.148.167-.148.167s1.092-3.534-2.089-3.534c-1.995 0-4.744 1.679-6.105 3.21-.863.366-2.696 1.137-4.637 1.96-.741.313-1.51.647-2.237.949l-.148-.125C12.05 23.052 4.92 20.8 5.218 16.527c.108-1.553.809-5.65 13.694-10.61 10.553-4.066 19.003-2.95 20.472-.47 2.09 3.544-4.515 10.132-15.486 11.08-4.178.365-6.375-.886-6.927-1.355-.58-.49-.66-.51-.876-.417-.35.146-.135.584 0 .845.323.656 1.67 1.824 3.962 2.408 2.008.51 6.914.792 12.844-.98 6.645-1.991 11.834-7.516 10.31-12.133-1.55-4.701-11.63-6.244-21.16-3.628-5.673 1.564-11.82 4.003-16.24 7.203C.555 12.264-.281 15.58.069 16.955c1.227 4.91 9.974 8.11 13.478 10.475-.175.073-.337.146-.485.209-1.752.667-8.424 3.367-10.095 6.223-1.887 3.23.297 5.555 1.752 5.868 4.502.97 9.111-.771 11.605-3.638 2.48-2.866 2.183-6.587 1.037-8.286l-.04-.063 1.375-.625c.89-.407 1.765-.782 2.533-1.105-.43.906-.74 1.98-.902 3.544-.19 1.834.781 4.21 2.062 5.149.566.406 1.24.417 1.657.417 1.483 0 2.157-.949 2.898-2.085.917-1.386 1.725-2.991 1.725-2.991s-1.01 4.346 1.752 4.346c1.011 0 2.022-1.01 2.48-1.532v.01s.027-.03.081-.104c.057-.065.11-.13.162-.198v-.02c.404-.543 1.307-1.783 2.655-3.837 1.739-2.647 3.41-5.962 3.41-5.962s.162.813.66 2.148c.297.792.944 1.657 1.442 2.501-.404.438-.647.688-.647.688l.014.01a32.37 32.37 0 01-1.065 1.043c-1.374 1.272-3.019 2.72-3.234 3.138-.256.49-.203.854.296 1.146.364.209 1.01.25 1.698.209 1.24-.063 2.103-.303 2.534-.449a9.896 9.896 0 002.183-.886c1.348-.771 2.17-1.866 2.09-3.325-.04-.802-.378-1.595-.796-2.345.122-.136.243-.271.364-.417 2.13-2.408 3.774-5.055 3.774-5.055s.162.813.66 2.147c.256.677.769 1.418 1.227 2.147-1.995 1.262-3.248 2.72-3.68 3.68-.795 1.772-.175 2.574.998 2.762.525.083 1.28-.104 1.846-.292.7-.177 1.55-.48 2.332-.928 1.348-.77 2.642-1.845 2.574-3.293-.04-.668-.27-1.324-.58-1.95 1.699-.542 3.895-.854 6.685-.594 5.998.542 7.184 3.44 6.955 4.65-.229 1.208-1.482 1.875-1.9 2.084-.418.198-.553.27-.513.417.054.219.243.208.607.167.499-.063 3.154-.99 3.262-3.221.161-2.867-3.356-5.994-9.597-5.963zM13.143 35.03c-1.981 1.677-4.771 2.313-5.957 1.771-1.28-.573-.782-3.044 1.658-4.826 1.482-1.084 3.41-2.085 4.676-2.7.283-.135.715-.333 1.227-.573a1.39 1.39 0 01.135-.063c.094-.041.202-.093.31-.145.902 2.543.04 4.773-2.05 6.535zm14.488-7.62c-.687 1.302-2.143 4.648-3.018 4.46-.755-.156-1.213-2.689-.149-5.19.54-1.261 1.685-2.762 2.359-3.346 1.091-.938 2.277-1.251 2.574-.865.35.5-1.334 4.127-1.765 4.94zm11.955 4.42c-.296.114-.566.197-.687.135-.095-.042.121-.198.121-.198s1.496-1.24 2.09-1.814c.336-.334.74-.72 1.172-1.157v.125c0 1.5-1.86 2.502-2.696 2.908zm9.219-1.627c-.216-.125-.189-.51.539-1.72.283-.48.93-1.282 2.049-2.043.134.313.215.615.202.897-.014 1.876-1.739 2.574-2.79 2.866z" fill="#CF649A"/></svg>