<svg width="69" height="69" fill="none" xmlns="http://www.w3.org/2000/svg"><path d="M0 0h69v69H0V0z" fill="#F26522"/><path d="M28.445 43.114H39v-2.872h-7.294v-4.449h6.725v-2.871h-6.725v-4.165H39v-2.871H28.445v17.228zm24.652-4.682c0-3.441-.233-4.191-4.863-5.303-2.975-.725-3.026-.776-3.026-2.742 0-1.5.388-1.966 2.587-1.966 1.5 0 3.181.207 4.604.517l.362-2.742a23.507 23.507 0 00-5.019-.569c-4.371 0-5.794 1.552-5.794 4.682 0 3.647.57 4.45 4.734 5.38 3.104.673 3.156.828 3.156 2.742 0 1.656-.388 2.148-2.742 2.148-1.707 0-3.26-.31-4.863-.803l-.57 2.561c1.139.544 3.415 1.035 5.381 1.035 5.096 0 6.053-1.681 6.053-4.94zm6.002-6.416c0-2.638 1.267-3.156 4.32-3.156.543 0 1.681.078 2.431.233l.207-2.638c-.776-.181-2.018-.31-2.975-.31-4.708 0-7.14 1.448-7.14 6v6.286c0 2.975.88 4.941 5.33 4.941 4.06 0 5.302-2.017 5.302-4.708v-1.241c0-2.975-1.267-4.269-4.397-4.269-1.112 0-2.173.156-3.078.466v-1.604zm2.586 3.855c1.139 0 1.733.388 1.733 1.63v1.267c0 1.319-.517 1.888-2.146 1.888-1.63 0-2.173-.466-2.173-1.888v-2.354a6.777 6.777 0 012.586-.543z" fill="#fff"/></svg>