<svg width="69" height="60" fill="none" xmlns="http://www.w3.org/2000/svg"><path d="M0 9.286h16.131v5H0v-5zM0 0h16.131v5H0V0zm28.942 18.5H0v5h27.858c3.05 0 10.166.071 12.81 4.571v-2.785C39.38 20.857 35.585 18.5 28.942 18.5zm.068 9.286H0v5h27.858c6.778 0 11.048.285 12.81 1.285v-2.214c-1.356-3.5-7.05-4.071-11.658-4.071zm-.068 23.571H0v-5h27.858c3.05 0 10.166-.071 12.81-4.571v2.785C39.38 49 35.585 51.357 28.942 51.357zm.068-9.286H0v-5h27.858c6.778 0 11.048-.285 12.81-1.285V38c-1.356 3.5-7.05 4.071-11.658 4.071zM47.717 60H69v-3.072H48.327c-1.83 0-6.168-.07-7.727-2.714v1.715C41.346 58.57 43.65 60 47.717 60zm-.068-5.643h21.283v-3.071H48.327c-4.135 0-6.71-.143-7.727-.786v1.357c.813 2.143 4.27 2.5 7.05 2.5z" fill="#010101"/></svg>