<svg width="69" height="61" fill="none" xmlns="http://www.w3.org/2000/svg"><path d="M56.587.322H8.365A4.56 4.56 0 003.81 4.877v34.168c0 2.222 1.646 4.147 3.837 4.498l.82.655h47.31l1.528-.655a4.584 4.584 0 003.837-4.498V4.877A4.56 4.56 0 0056.587.322z" fill="#365E7D"/><path d="M8.155 39.045V4.877A4.56 4.56 0 0112.711.322H8.365A4.56 4.56 0 003.81 4.877v34.168c0 2.222 1.646 4.147 3.837 4.498l.82.655h4.346l-.82-.655c-2.191-.35-3.838-2.276-3.838-4.498z" fill="#2B4D66"/><path d="M56.496 8.37H8.729l-.827.862v29.44c0 .451.366.817.818.817h47.513a.817.817 0 00.817-.817V9.232l-.554-.863z" fill="#E4F6FF"/><path d="M13.215 38.672V9.232l.827-.863H8.729l-.827.863v29.44c0 .451.366.817.818.817h5.312a.818.818 0 01-.817-.817z" fill="#D3EFFB"/><path d="M13.215 4.385H8.72a.817.817 0 00-.818.817v4.03h5.313l.35-.373V4.644l-.35-.26z" fill="#DD636E"/><path d="M56.233 4.385H13.215v4.847H57.05v-4.03a.817.817 0 00-.817-.817z" fill="#B1E4F9"/><path d="M64.192 43.545H.76a.765.765 0 00-.761.768v2.642c0 1.96 1.588 3.563 3.53 3.563h57.893c1.941 0 3.53-1.603 3.53-3.563v-2.642a.764.764 0 00-.761-.768z" fill="#407093"/><path d="M7.902 46.953V44.31c0-.424.34-.768.761-.768H.761A.765.765 0 000 44.31v2.642c0 1.96 1.588 3.563 3.53 3.563h7.902c-1.941 0-3.53-1.603-3.53-3.563zm60.374 6.112V25.947l.724-.685v-3.046a2.833 2.833 0 00-2.833-2.833H48.78a2.833 2.833 0 00-2.833 2.833v3.046l.81.73V53.32l-.81.502v4.025a2.833 2.833 0 002.833 2.833h17.386A2.833 2.833 0 0069 57.847V53.82l-.724-.756z" fill="#365E7D"/><path d="M50.124 57.847V53.82l.81-.501V25.993l-.81-.73v-3.047a2.833 2.833 0 012.833-2.833h-4.176a2.833 2.833 0 00-2.833 2.833v3.046l.81.73V53.32l-.81.502v4.025a2.833 2.833 0 002.833 2.833h4.176a2.833 2.833 0 01-2.833-2.833z" fill="#294B64"/><path d="M31.782 33.067a8.707 8.707 0 100-17.415 8.707 8.707 0 000 17.415z" fill="#DD636E"/><path d="M26.407 24.36c0-4.24 3.03-7.769 7.04-8.547a8.707 8.707 0 100 17.092c-4.01-.777-7.04-4.306-7.04-8.545z" fill="#DA4A54"/><path d="M35.325 23.46l-4.468-3.048a1.091 1.091 0 00-1.706.902v6.094c0 .877.982 1.395 1.706.901l4.468-3.047a1.091 1.091 0 000-1.803z" fill="#F4FBFF"/><path d="M32.483 21.52l-1.626-1.108a1.091 1.091 0 00-1.706.902v6.094c0 .877.982 1.395 1.706.901l1.626-1.108v-5.68z" fill="#E4F6FF"/><path d="M45.948 29.232H69v24.59H45.948v-24.59z" fill="#90D8F9"/><path d="M45.948 29.232h4.176v24.59h-4.176v-24.59z" fill="#75CEF9"/><path d="M58.58 58.07h-2.213a1.041 1.041 0 110-2.082h2.214a1.041 1.041 0 110 2.083z" fill="#365E7D"/><path d="M57.474 49.063a7.578 7.578 0 100-15.157 7.578 7.578 0 000 15.157z" fill="#DD636E"/><path d="M52.759 41.486a7.58 7.58 0 016.146-7.44 7.578 7.578 0 100 14.883 7.58 7.58 0 01-6.146-7.443z" fill="#DA4A54"/><path d="M45.948 25.262h4.245v4.167h-4.245v-4.167z" fill="#DD636E"/><path d="M50.124 25.262v4.167H69v-4.167H50.124z" fill="#B1E4F9"/><path d="M60.558 40.701l-3.889-2.651a.95.95 0 00-1.485.784v5.304a.95.95 0 001.485.785l3.889-2.652a.95.95 0 000-1.57z" fill="#F4FBFF"/><path d="M58.048 38.99l-1.379-.94a.95.95 0 00-1.485.784v5.304a.95.95 0 001.485.785l1.379-.94v-4.994z" fill="#E4F6FF"/></svg>