<svg width="69" height="60" fill="none" xmlns="http://www.w3.org/2000/svg"><path d="M3.639 0l5.965 54.082L34.735 60l24.776-5.918L65.477 0H3.639z" fill="#FD982C"/><path d="M34.735 0v60l24.776-5.918L65.477 0H34.735z" fill="#FA502E"/><path d="M53.121 18.678H26.726l.442 4.198h25.828l-2.087 23.46-16.195 4.096-17.383-4.7v-9.515h10.798v2.834l6.587 1.77 6.24-1.771.455-7.025H17.498l-2.7-22.379h38.323v9.032z" fill="#fff"/><path d="M34.735 9.646h18.386v9.032H34.735V9.646zm6.675 22.38l-.454 7.024-6.22 1.766v9.611l16.172-4.09 2.088-23.46h-18.26v9.149h6.675z" fill="#DEECF1"/></svg>