<svg width="40" height="40" fill="#828282" xmlns="http://www.w3.org/2000/svg"><path d="M7.443 0C3.366 0 0 3.366 0 7.443v25.114C0 36.634 3.366 40 7.443 40h25.114C36.634 40 40 36.634 40 32.557V7.443C40 3.366 36.634 0 32.557 0H7.443zm0 3.636h25.114a3.795 3.795 0 013.807 3.807v25.114a3.795 3.795 0 01-3.807 3.807H7.443a3.795 3.795 0 01-3.807-3.807V7.443a3.795 3.795 0 013.807-3.807zm12.046 9.489c-1.335-.013-2.485.026-3.125.34-.426.21-.769.655-.569.683.248.033.84.164 1.137.568.384.522.34 1.705.34 1.705s.224 3.234-.51 3.636c-.504.274-1.186-.332-2.671-2.898-.762-1.314-1.307-2.727-1.307-2.727s-.143-.31-.34-.455a1.487 1.487 0 00-.569-.227l-3.523.057s-.544-.006-.738.227c-.175.207-.057.625-.057.625s2.813 6.548 5.966 9.83c2.894 3.007 6.193 2.784 6.193 2.784h1.477s.453-.037.682-.284c.21-.228.17-.682.17-.682s-.016-1.98.91-2.273c.912-.289 2.108 1.931 3.352 2.784.94.646 1.648.511 1.648.511l3.295-.056s1.733-.11.91-1.477c-.068-.111-.453-.994-2.444-2.841-2.084-1.935-1.83-1.655.682-5 1.529-2.039 2.18-3.274 1.988-3.807-.181-.508-1.307-.341-1.307-.341h-3.75s-.305-.01-.51.114c-.203.12-.342.397-.342.397s-.574 1.556-1.363 2.898C23.448 20.045 22.773 20.174 22.5 20c-.634-.41-.454-1.624-.454-2.5 0-2.742.43-3.908-.796-4.204-.407-.099-.72-.16-1.761-.171z"/></svg>