<svg width="69" height="69" xmlns="http://www.w3.org/2000/svg"><path d="M32.914 68.226c17.77 0 32.175-15.1 32.175-33.726C65.089 15.874 50.684.774 32.914.774 15.144.774.739 15.874.739 34.5c0 18.626 14.405 33.726 32.175 33.726z" fill="#D81F26"/><path d="M32.914 69c-8.79 0-17.063-3.593-23.267-10.111C3.427 52.368 0 43.712 0 34.5s3.427-17.885 9.647-24.389C15.866 3.592 24.124 0 32.914 0S49.976 3.592 56.18 10.111c6.22 6.52 9.647 15.176 9.647 24.389S62.4 52.385 56.18 58.889C49.976 65.406 41.704 69 32.914 69zm0-67.452C15.585 1.548 1.477 16.321 1.477 34.5c0 18.18 14.108 32.951 31.437 32.951 17.328 0 31.436-14.787 31.436-32.951S50.257 1.548 32.914 1.548z" fill="#3A1811"/><path d="M32.914 65.764a.375.375 0 01-.37-.387c0-.217.163-.387.37-.387C48.957 64.99 62 51.317 62 34.5c0-.216.163-.387.37-.387.206 0 .369.17.369.387 0 17.235-13.37 31.264-29.826 31.264zM59.77 22.159a.35.35 0 01-.34-.232 31.435 31.435 0 00-2.924-5.28 30.214 30.214 0 00-5.806-6.288 28.73 28.73 0 00-6.78-4.103c-.193-.077-.281-.31-.208-.511a.37.37 0 01.488-.217 29.416 29.416 0 016.958 4.212 31.334 31.334 0 015.953 6.442 32.33 32.33 0 013 5.404.394.394 0 01-.178.51.267.267 0 01-.163.063z" fill="#3A1811"/><path d="M32.914 61.211c14.074 0 25.483-11.959 25.483-26.71 0-14.753-11.41-26.712-25.483-26.712C18.84 7.79 7.43 19.75 7.43 34.5c0 14.752 11.409 26.711 25.483 26.711z" fill="#FAF5AE"/><path d="M32.914 61.986C18.45 61.986 6.692 49.66 6.692 34.5S18.45 7.015 32.914 7.015c14.462 0 26.221 12.325 26.221 27.485 0 15.144-11.759 27.486-26.221 27.486zm0-53.423c-13.636 0-24.745 11.63-24.745 25.937 0 14.308 11.095 25.937 24.745 25.937S57.658 48.808 57.658 34.5c0-14.308-11.094-25.937-24.744-25.937z" fill="#3A1811"/><path d="M32.914 58.424a.375.375 0 01-.37-.387c0-.217.163-.387.37-.387 4.83 0 9.425-1.61 13.266-4.646a.362.362 0 01.517.078c.118.17.088.418-.074.541-3.974 3.144-8.716 4.8-13.71 4.8zm17.609-8.919a.475.475 0 01-.237-.078.39.39 0 01-.059-.542C53.344 44.766 55 39.795 55 34.515c0-4.94-1.463-9.647-4.24-13.626-.118-.17-.089-.418.074-.542a.362.362 0 01.517.077c2.866 4.12 4.373 8.981 4.373 14.091 0 5.451-1.7 10.592-4.934 14.85a.31.31 0 01-.266.14zM20.756 15.082a.38.38 0 01-.31-.17.423.423 0 01.103-.542 21.984 21.984 0 0112.365-3.81c2.94 0 5.806.573 8.51 1.72.191.077.28.309.206.51a.37.37 0 01-.488.217 21.15 21.15 0 00-8.228-1.657 21.23 21.23 0 00-11.966 3.686.437.437 0 01-.192.046z" fill="#3A1811"/><path d="M32.914 53.593c10.06 0 18.214-8.549 18.214-19.093 0-10.545-8.155-19.093-18.214-19.093-10.06 0-18.215 8.548-18.215 19.093 0 10.544 8.155 19.093 18.215 19.093z" fill="#D81F26"/><path d="M32.914 54.367c-10.46 0-18.954-8.92-18.954-19.867 0-10.948 8.51-19.867 18.954-19.867 10.46 0 18.953 8.919 18.953 19.867 0 10.947-8.494 19.867-18.953 19.867zm0-38.186c-9.632 0-17.476 8.223-17.476 18.319 0 10.096 7.844 18.318 17.476 18.318 9.632 0 17.476-8.222 17.476-18.318 0-10.112-7.83-18.319-17.476-18.319z" fill="#3A1811"/><path d="M32.914 51.023c-3.723 0-7.327-1.378-10.164-3.887a.389.389 0 01-.044-.542.348.348 0 01.517-.046c2.703 2.4 6.146 3.716 9.69 3.716 3.31 0 6.457-1.1 9.086-3.205 2.541-2.029 4.447-4.909 5.333-8.099.399-1.44.606-2.927.606-4.444 0-.217.162-.387.37-.387.206 0 .368.17.368.387 0 1.58-.206 3.159-.635 4.66-.945 3.361-2.925 6.38-5.599 8.502-2.762 2.183-6.056 3.345-9.528 3.345zm12.512-25.535a.38.38 0 01-.295-.155c-1.995-2.927-4.92-5.048-8.199-6.008a.387.387 0 01-.251-.48c.059-.202.251-.325.458-.264 3.457 1.007 6.5 3.237 8.612 6.303a.407.407 0 01-.088.542c-.089.03-.163.062-.237.062z" fill="#3A1811"/><path d="M32.914 46.16c6.143 0 11.124-5.22 11.124-11.66s-4.98-11.66-11.124-11.66S21.79 28.06 21.79 34.5s4.98 11.66 11.124 11.66z" fill="#FAF5AE"/><path d="M32.914 46.934c-6.545 0-11.863-5.575-11.863-12.434 0-6.86 5.319-12.435 11.863-12.435S44.776 27.64 44.776 34.5s-5.318 12.434-11.862 12.434zm0-23.336c-5.732 0-10.386 4.878-10.386 10.886 0 6.008 4.654 10.886 10.386 10.886 5.732 0 10.385-4.878 10.385-10.886 0-6.008-4.653-10.886-10.385-10.886z" fill="#3A1811"/><path d="M32.914 43.977a.375.375 0 01-.37-.387c0-.217.163-.387.37-.387 4.58 0 8.317-3.903 8.317-8.718 0-.217.162-.387.37-.387.206 0 .368.17.368.387 0 5.25-4.062 9.492-9.055 9.492zm7.194-14.184a.38.38 0 01-.31-.17 8.57 8.57 0 00-2.955-2.803.397.397 0 01-.147-.527c.103-.186.325-.263.502-.155a9.391 9.391 0 013.22 3.05.395.395 0 01-.103.543.465.465 0 01-.207.062z" fill="#3A1811"/><path d="M32.914 39.982c2.888 0 5.23-2.454 5.23-5.482 0-3.027-2.342-5.481-5.23-5.481-2.889 0-5.23 2.454-5.23 5.481 0 3.028 2.341 5.482 5.23 5.482z" fill="#BE1E2D"/><path d="M32.913 40.74c-3.294 0-5.968-2.803-5.968-6.256 0-3.453 2.674-6.256 5.968-6.256 3.295 0 5.969 2.803 5.969 6.256 0 3.453-2.674 6.256-5.968 6.256zm0-10.948c-2.466 0-4.49 2.106-4.49 4.708 0 2.586 2.009 4.707 4.49 4.707 2.482 0 4.491-2.106 4.491-4.707 0-2.602-2.009-4.707-4.49-4.707z" fill="#3A1811"/><path d="M66.108 35.615h-32.13c-.592 0-1.064-.496-1.064-1.115 0-.62.472-1.115 1.063-1.115h32.131c.59 0 1.064.495 1.064 1.115-.015.604-.488 1.115-1.064 1.115z" fill="#A67A44"/><path d="M66.108 36.002h-32.13c-.784 0-1.434-.666-1.434-1.502s.636-1.502 1.433-1.502h32.131c.783 0 1.433.666 1.433 1.502s-.65 1.502-1.433 1.502zm-32.13-2.23c-.385 0-.695.325-.695.728 0 .403.31.728.694.728h32.131c.384 0 .694-.325.694-.728 0-.403-.31-.728-.694-.728h-32.13z" fill="#3A1811"/><path d="M65.015 33.385h-7.18c-.354 0-.516-.449-.265-.696l3.22-3.113a.414.414 0 01.266-.108h7.18c.354 0 .517.449.266.697l-3.22 3.112a.414.414 0 01-.267.108z" fill="#00AEEF"/><path d="M65.015 33.772h-7.18a.776.776 0 01-.709-.496.793.793 0 01.192-.867l3.22-3.112a.72.72 0 01.518-.217h7.18c.31 0 .59.201.709.496a.793.793 0 01-.193.867l-3.22 3.112a.72.72 0 01-.517.217zm-3.96-3.918l-3.22 3.113s-.014.015 0 .015c0 .016 0 .016.015.016h7.194l3.206-3.113s.015-.015 0-.015c0-.016 0-.016-.015-.016h-7.18z" fill="#3A1811"/><path d="M65.015 35.615h-7.18c-.354 0-.516.45-.265.697l3.22 3.113a.414.414 0 00.266.108h7.18c.354 0 .517-.45.266-.697l-3.22-3.112a.347.347 0 00-.267-.109z" fill="#00AEEF"/><path d="M68.235 39.904h-7.18a.746.746 0 01-.516-.217l-3.22-3.112a.787.787 0 01-.193-.868.74.74 0 01.71-.495h7.179c.192 0 .37.077.517.217l3.22 3.112c.237.217.31.558.193.867a.776.776 0 01-.71.496zM57.85 36.002c-.015 0-.015 0-.015.015v.016l3.22 3.112h7.195c.015 0 .015 0 .015-.015v-.016l-3.22-3.112H57.85zm1.3-.976H44.038a.375.375 0 01-.37-.387c0-.217.163-.387.37-.387h15.098c.206 0 .369.17.369.387a.355.355 0 01-.355.387zm5.791-2.322h-3.737a.375.375 0 01-.37-.387c0-.217.163-.387.37-.387h3.442l1.448-1.394a.358.358 0 01.517.016c.133.155.133.402-.015.542l-1.655 1.61z" fill="#3A1811"/><path d="M64.66 36.977h-3.456a.375.375 0 01-.37-.387c0-.217.163-.387.37-.387h3.457c.206 0 .369.17.369.387a.375.375 0 01-.37.387z" fill="#3A1811"/></svg>