<svg width="40" height="40" xmlns="http://www.w3.org/2000/svg" fill="#828282"><path d="M20.203 39.937C9.398 39.977.01 30.547.275 19.54.525 9.079 9.82.18 20.6.306c10.68.125 19.68 9.452 19.406 20.42-.258 10.43-9.171 19.274-19.804 19.211zM17.97 30.29c-.953-.304-1.922-.53-2.813-.93-1.812-.812-2.96-2.218-3.328-4.195-.234-1.28-.14-2.57.016-3.851.14-1.133.468-2.188 1.328-3.008.062-.063.07-.242.031-.336-.414-1.133-.367-2.266-.031-3.414.101-.344.265-.383.562-.289.782.242 1.414.71 1.953 1.305.29.312.547.656.82.984 1.626-1.055 6.274-1.055 7.977-.016.328-.382.64-.78.992-1.148.524-.54 1.133-.953 1.875-1.156.243-.07.375-.016.461.242.383 1.133.454 2.266 0 3.398-.086.227-.078.375.102.547.54.516.867 1.164 1.04 1.89.327 1.352.397 2.735.304 4.11-.102 1.477-.656 2.774-1.742 3.813-.914.867-2.008 1.383-3.211 1.687-.438.11-.875.188-1.344.282.601.921.75 1.921.726 2.968-.023 1.117-.007 2.242-.007 3.36 0 .132.007.273.015.414 7.133-1.297 14.336-8.399 13.547-18.235C36.5 9.328 28.195 2.125 18.586 3.047c-8.977.86-16.18 8.867-15.367 18.57.773 9.18 8.21 14.68 14.03 15.399v-2c-.32.047-.608.086-.89.117-2.093.235-3.757-.703-4.687-2.57-.508-1.024-1.047-2.047-2.047-2.703-.11-.07-.172-.203-.266-.32.086-.063.125-.094.172-.118a.84.84 0 01.188-.039c.703-.047 1.367.078 1.89.57.344.32.657.704.914 1.102.985 1.54 2.68 2.188 4.407 1.672.234-.07.367-.172.39-.445.047-.735.25-1.43.649-1.993z"/></svg>