<svg width="70" height="70" fill="none" xmlns="http://www.w3.org/2000/svg"><path d="M3.529 69.654h63.25a2.875 2.875 0 002.875-2.875V15.03h-69v51.75a2.875 2.875 0 002.875 2.875z" fill="#40495A"/><path d="M66.779.654H3.529A2.875 2.875 0 00.654 3.53v11.5h69V3.53A2.875 2.875 0 0066.779.654z" fill="#EAE8E8"/><path d="M15.029 6.406H6.404v2.875h8.625V6.406zm48.875 0H20.78v2.875h43.125V6.406z" fill="#D7D4D4"/><path d="M12.154 58.154h-5.75v2.875h5.75v-2.875zm0-11.5h-5.75v2.875h5.75v-2.875zm0 5.75h-5.75v2.875h5.75v-2.875zm0-17.25h-5.75v2.875h5.75v-2.875zm0 5.75h-5.75v2.875h5.75v-2.875zm0-17.25h-5.75v2.875h5.75v-2.875zm0 5.75h-5.75v2.875h5.75v-2.875z" fill="#748191"/><path d="M20.779 40.904h-4.313v2.875h4.313v-2.875z" fill="#FFCD02"/><path d="M38.028 40.904H23.653v2.875h14.375v-2.875z" fill="#2ECC71"/><path d="M46.654 40.904h-5.75v2.875h5.75v-2.875z" fill="#FF6E40"/><path d="M58.154 40.904h-8.625v2.875h8.625v-2.875z" fill="#26C6DA"/><path d="M25.091 35.154h-8.625v2.875h8.625v-2.875z" fill="#2ECC71"/><path d="M42.341 35.154H27.966v2.875h14.375v-2.875z" fill="#26C6DA"/><path d="M53.841 35.154h-8.625v2.875h8.625v-2.875zm-28.75 11.5h-8.625v2.875h8.625v-2.875z" fill="#FF6E40"/><path d="M32.279 46.654h-4.313v2.875h4.313v-2.875z" fill="#26C6DA"/><path d="M40.904 46.654h-5.75v2.875h5.75v-2.875z" fill="#FFCD02"/><path d="M55.279 46.654h-11.5v2.875h11.5v-2.875z" fill="#2ECC71"/><path d="M61.028 46.654h-2.875v2.875h2.875v-2.875z" fill="#FFCD02"/><path d="M19.341 29.404h-2.875v2.875h2.875v-2.875z" fill="#26C6DA"/><path d="M45.216 29.404h-23v2.875h23v-2.875z" fill="#FFCD02"/><path d="M61.029 29.404H48.09v2.875h12.94v-2.875z" fill="#2ECC71"/><path d="M22.216 23.654h-5.75v2.875h5.75v-2.875zm14.375 0h-11.5v2.875h11.5v-2.875z" fill="#FF6E40"/><path d="M43.778 23.654h-4.312v2.875h4.312v-2.875z" fill="#FFCD02"/><path d="M63.904 23.654h-17.25v2.875h17.25v-2.875z" fill="#26C6DA"/><path d="M38.029 52.404H16.466v2.875H38.03v-2.875z" fill="#FFCD02"/><path d="M52.404 52.404h-11.5v2.875h11.5v-2.875z" fill="#26C6DA"/><path d="M63.903 52.404h-8.625v2.875h8.625v-2.875z" fill="#FF6E40"/><path d="M22.216 58.154h-5.75v2.875h5.75v-2.875z" fill="#26C6DA"/><path d="M33.716 58.154h-8.625v2.875h8.625v-2.875z" fill="#2ECC71"/><path d="M49.528 58.154H36.591v2.875h12.937v-2.875z" fill="#FF6E40"/><path d="M58.154 58.154h-5.75v2.875h5.75v-2.875z" fill="#FFCD02"/></svg>