<svg width="69" height="69" fill="none" xmlns="http://www.w3.org/2000/svg"><path d="M63.227 52.882l-27.52 15.579V56.327l17.121-9.429 10.399 5.984zm1.886-1.703V18.625l-10.07 5.822v20.92l10.065 5.806.005.006zm-59.34 1.703L33.266 68.45V56.327L16.14 46.898 5.773 52.882zm-1.886-1.703V18.625l10.07 5.822v20.92L3.886 51.18zm1.18-34.662L33.293.539v11.73l-18.086 9.946-.146.08-9.994-5.778zm58.855 0L35.708.539v11.73l18.085 9.94.146.081 9.994-5.773h-.01z" fill="#8ED6FB"/><path d="M33.292 53.566l-16.92-9.31V25.833l16.92 9.746v17.988zm2.415 0l16.921-9.299V25.832l-16.92 9.746v17.988zM17.52 23.718l16.98-9.347 16.981 9.347-16.98 9.79-16.98-9.79z" fill="#1C78C0"/></svg>