<svg width="69" height="36" fill="none" xmlns="http://www.w3.org/2000/svg"><path d="M66.427 14.634c-.329-.765-.488-1.67-.522-2.523-.084-2.098-.012-4.203-.1-6.301-.08-1.88-.702-3.572-2.38-4.54-1.476-.853-3.187-.938-4.83-.958v3.353c.548.02.413.038.547.046 2.206.116 2.945.87 2.973 3.224.021 1.75.007 3.503.033 5.253.032 2.124.327 4.151 2.133 5.492.03.023.027.107.045.205-.919.702-1.646 1.607-1.857 2.841-.17.999-.267 2.02-.296 3.036-.053 1.837.002 3.678-.047 5.515-.039 1.438-.672 2.114-1.974 2.434-.49.122-1.01.165-1.557.24v3.344a41.933 41.933 0 002.403-.205c2.823-.328 4.413-1.909 4.739-4.856.102-.924.09-1.865.11-2.798.035-1.75.017-3.507.163-5.245.148-1.774 1.347-2.755 2.99-2.657v-3.506c-1.095.211-2.105-.298-2.573-1.394zm-51.47 7.148c0-6.804-.171-13.608-.171-20.411V.301c-1.643 0-3.41-.018-5.143.008-.704.01-1.324.075-2.022.177-2.67.391-3.958 1.74-4.431 4.603-.137.825-.11 1.684-.121 2.529-.022 1.606.021 3.212-.003 4.818-.03 2.022-.915 3.589-2.832 3.708-.068.004.314.088-.234.139v3.125c2.19.37 2.888 1.322 3.033 3.51.023.35.03.701.033 1.052.018 1.956-.003 3.915.08 5.867.077 1.822.453 3.45 2.054 4.407 1.495.893 3.562.965 4.657 1.012v-3.337c0-.028-.115-.054-.222-.061-2.376-.156-2.911-.85-2.926-3.408-.009-1.694.058-3.388.033-5.082-.031-2.128-.32-4.146-2.111-5.493-.028-.02 0-.108-.01-.225 1.205-.82 1.845-2.072 2.019-3.59a25.86 25.86 0 00.142-2.533c.028-1.752-.001-3.505.043-5.255.031-1.23.761-2.127 1.693-2.329.882-.191 1.34-.185 2.982-.274V4.88c0 6.074-.201 12.147-.171 18.221.01 2.08.224 4.132 2.297 5.03 1.127.488 2.334.639 3.629.967.216-1.362.287-2.492.464-3.61-2.386-.736-2.761-1.118-2.761-3.706zm14.608-11.72c-4.02-2.067-8.898-.26-10.77 4.078-1.41 3.266-1.359 6.628-.118 9.94.673 1.796 1.89 3.14 3.545 3.93 3.233 1.545 6.505 1.17 9.765.086.176-.06.4-.423.379-.617-.111-.978-.296-1.947-.46-2.958-.777.21-1.425.426-2.088.56-1.75.354-3.505.353-5.209-.376-1.682-.719-2.812-2.786-2.53-4.554h11.43c.139-1.767.084-4.198-.616-6.207-.624-1.796-1.702-3.044-3.328-3.881zm-.024 7.144H22.03c.003-2.357 1.787-4.472 4.127-4.423 2.055.042 3.477 2.066 3.384 4.423zm30.726 7.234c.269-2.978-.567-4.653-3.031-5.947-.874-.459-1.802-.799-2.692-1.224-.666-.318-1.337-.64-1.96-1.043-.607-.392-.861-1.043-.772-1.804.089-.753.538-1.249 1.188-1.39.787-.172 1.611-.32 2.403-.25 1.118.098 2.22.407 3.375.633l.729-3.427c-1.561-.256-3.017-.586-4.488-.711-1.636-.139-3.228.153-4.726.984-3.163 1.753-3.221 7.138-.314 8.905.868.528 1.798.94 2.701 1.402.952.487 1.937.911 2.848 1.475.69.429.938 1.176.753 2.048-.172.81-.742 1.17-1.412 1.24-1.018.104-2.063.204-3.071.075-1.214-.155-2.403-.552-3.646-.855l-.635 3.412c2.92 1.179 5.81 1.372 8.728.676 2.442-.582 3.833-2.118 4.022-4.199zm-15.561-5.569c-1.073-.612-2.227-1.058-3.334-1.604-.687-.338-1.415-.633-2.02-1.102-1.165-.903-.949-2.635.408-3.098.778-.266 1.658-.348 2.476-.283 1.114.09 2.213.4 3.374.627l.689-3.268c-.59-.172-1.124-.36-1.67-.484-2.175-.492-4.361-.683-6.503.127-1.84.696-3.117 1.998-3.37 4.189-.282 2.446.472 4.377 2.572 5.539.841.465 1.742.803 2.6 1.234.857.43 1.731.84 2.527 1.38.608.413.848 1.11.677 1.918-.17.8-.713 1.203-1.387 1.278-1.02.112-2.064.216-3.073.09-1.22-.153-2.411-.551-3.677-.857-.187.95-.406 1.907-.542 2.878-.03.21.189.616.373.685 2.948 1.1 5.95 1.257 8.948.307 1.79-.567 3.043-1.798 3.295-3.902.287-2.39-.243-4.445-2.363-5.654z" fill="#2A4D80"/></svg>