<svg width="46" height="70" fill="none" xmlns="http://www.w3.org/2000/svg"><path d="M11.614 69.364c6.277 0 11.37-5.175 11.37-11.556V46.252h-11.37c-6.278 0-11.37 5.175-11.37 11.556 0 6.38 5.092 11.556 11.37 11.556z" fill="#0ACF83"/><path d="M.244 34.683c0-6.38 5.092-11.556 11.37-11.556h11.37v23.126h-11.37C5.336 46.24.244 41.063.244 34.683z" fill="#A259FF"/><path d="M.244 11.556C.244 5.176 5.336 0 11.614 0h11.37v23.126h-11.37c-6.278 0-11.37-5.19-11.37-11.57z" fill="#F24E1E"/><path d="M22.997 0h11.37c6.278 0 11.37 5.175 11.37 11.556 0 6.38-5.092 11.556-11.37 11.556h-11.37V0z" fill="#FF7262"/><path d="M45.737 34.683c0 6.38-5.092 11.556-11.37 11.556s-11.37-5.175-11.37-11.556c0-6.38 5.092-11.556 11.37-11.556s11.37 5.175 11.37 11.556z" fill="#1ABCFE"/></svg>