<svg width="30" height="69" fill="none" xmlns="http://www.w3.org/2000/svg"><path d="M23.114 66.897l.636-11.025 1.755-3.118s-3.996 1.7-10.685 1.7c-6.69 0-10.626-1.669-10.626-1.669l1.968 3.402.696 10.71c0 1.148 3.639 2.078 8.128 2.078 4.489 0 8.128-.93 8.128-2.078zm-2.006-51.482l1.335-5.488 7.39-8.092L27.885.108l-7.824 8.62-1.55 6.558a99.62 99.62 0 00-3.5-.06c-8.24 0-14.92.977-14.92 2.182s6.68 2.182 14.92 2.182 14.921-.977 14.921-2.182c0-.888-3.623-1.652-8.824-1.993" fill="#D34A47"/><path d="M20.332 18.49s-.29.067-1.14.07c-.85.004-1.454-.005-1.694-.233a.404.404 0 01-.1-.265c0-.157.108-.25.244-.307l.128.21c-.056.02-.088.044-.088.07 0 .118.87.2 1.535.191.666-.008 1.47-.066 1.47-.183 0-.035-.06-.069-.166-.095l.128-.209c.173.056.323.164.323.35-.002.317-.389.365-.64.4" fill="#fff"/><path d="M29.818 1.85c.186-.223-.096-.794-.63-1.275-.533-.481-1.117-.69-1.303-.467-.186.223.096.795.63 1.276.534.48 1.117.69 1.303.466zm-7.06 38.119c-.175-1.754 3.686-4.293 2.695-4.375-2.133.127-3.195 2.602-4.268 5.193-.393.95-1.74 5-2.622 4.501-.882-.498 1.144-3.828 1.712-5.806-.655.5-3.059 2.443-3.678.623-.996.88-3.124 1.357-2.884-.955-.53.977-1.719 2.34-3.146 1.773-1.875-.743 1.086-6.956 1.822-6.642.736.313-.148 1.728-.38 2.278-.51 1.21-1.099 2.73-.705 3.04.673.534 2.507-2.016 2.548-2.072.343-.472 1.32-3.556 2.107-3.202.788.354-1.964 4.426-.935 5.234.207.164 1.056-.1 1.573-.681.334-.377.219-1.21 1.333-3.973 1.114-2.764 2.106-6.206 2.87-5.944.764.262.134 2.029-.14 2.687-1.285 3.091-3.51 8.198-2.46 7.81 1.048-.386 1.594-.408 2.621-1.659 1.027-1.25.98-3.31 1.664-3.266.685.044.57.704.404 1.207.674-.802 3.193-2.491 3.802-.818.72 1.98-3.605 4.842-2.527 4.696 1.052-.142 2.755-1.265 3.482-2.285l2.003-18.729s-2.015 1.735-14.832 1.735S.194 18.64.194 18.64L1.9 35.735c.905-2.676 3.053-8.087 6.44-7.906 1.54.083 3.596 3.17 1.835 3.274-.746.044-.822-1.54-1.705-1.774-.637-.168-1.524.371-2.097.955-1.143 1.165-3.602 5.758-3.277 8.048.414 2.92 3.872-1.014 4.457-2.182.412-.823.69-3.26 1.591-3.005.902.256-.078 2.771-.731 4.995-.734 2.498-1.12 5.133-2.04 4.83-.92-.303.579-3.527.524-4.093-.864.83-2.457 2.932-4.495 1.892L3.46 51.385s2.814 2.312 11.289 2.312 11.392-2.276 11.392-2.276l1.315-12.296c-1.076 1.09-4.48 3.025-4.697.844" fill="#D34A47"/></svg>