<svg width="131" height="22" fill="none" xmlns="http://www.w3.org/2000/svg"><path d="M9.941 3.752c.301-.918 1.6-.918 1.9 0l1.11 3.383a1 1 0 00.95.688h3.571c.971 0 1.372 1.245.584 1.812l-2.872 2.067a1 1 0 00-.366 1.123l1.1 3.356c.302.92-.748 1.69-1.534 1.124l-2.909-2.094a1 1 0 00-1.168 0l-2.91 2.094c-.785.565-1.835-.204-1.533-1.124l1.1-3.356a1 1 0 00-.365-1.123L3.726 9.635c-.788-.567-.387-1.812.584-1.812h3.571a1 1 0 00.95-.688l1.11-3.383zm27.409 0c.302-.918 1.6-.918 1.901 0l1.11 3.383a1 1 0 00.95.688h3.57c.972 0 1.373 1.245.585 1.812l-2.873 2.067a1 1 0 00-.366 1.123l1.101 3.356c.302.92-.748 1.69-1.534 1.124l-2.91-2.094a1 1 0 00-1.167 0l-2.91 2.094c-.785.565-1.835-.204-1.534-1.124l1.101-3.356a1 1 0 00-.366-1.123l-2.872-2.067c-.788-.567-.387-1.812.584-1.812h3.57a1 1 0 00.95-.688l1.11-3.383z" fill="#070707"/><path d="M92.17 3.752c.301-.918 1.6-.918 1.9 0l1.11 3.383a1 1 0 00.95.688h3.571c.971 0 1.372 1.245.584 1.812l-2.872 2.067a1 1 0 00-.366 1.123l1.1 3.356c.302.92-.748 1.69-1.534 1.124l-2.909-2.094a1 1 0 00-1.168 0l-2.91 2.094c-.785.565-1.835-.204-1.533-1.124l1.1-3.356a1 1 0 00-.365-1.123l-2.873-2.067c-.788-.567-.387-1.812.584-1.812h3.571a1 1 0 00.95-.688l1.11-3.383zm-27.126.143c.234-.714 1.25-.714 1.485 0l1.368 4.168a.78.78 0 00.742.536h4.42c.758 0 1.072.963.46 1.404l-3.574 2.57a.773.773 0 00-.284.87l1.365 4.162c.235.714-.588 1.31-1.2.868l-3.581-2.577a.785.785 0 00-.917 0l-3.58 2.577c-.613.441-1.436-.154-1.202-.868l1.366-4.163a.773.773 0 00-.285-.868l-3.572-2.571c-.613-.441-.3-1.404.458-1.404h4.42a.78.78 0 00.743-.536l1.368-4.168zm54.536-.143c.301-.918 1.599-.918 1.9 0l1.11 3.383a1 1 0 00.95.688h3.571c.971 0 1.372 1.245.584 1.812l-2.872 2.067a1 1 0 00-.367 1.123l1.101 3.356c.302.92-.748 1.69-1.534 1.124l-2.909-2.094a1 1 0 00-1.168 0l-2.909 2.094c-.786.565-1.836-.204-1.535-1.124l1.101-3.356a1 1 0 00-.366-1.123l-2.872-2.067c-.788-.567-.387-1.812.584-1.812h3.571a1 1 0 00.95-.688l1.11-3.383z" fill="#E5E5E5"/></svg>