<?xml version="1.0" encoding="UTF-8"?><!DOCTYPE svg PUBLIC "-//W3C//DTD SVG 1.1//EN" "http://www.w3.org/Graphics/SVG/1.1/DTD/svg11.dtd"><svg xmlns="http://www.w3.org/2000/svg" xmlns:xlink="http://www.w3.org/1999/xlink"><symbol id="icon-2-stars"><path d="M9.941 3.752c.301-.918 1.6-.918 1.9 0l1.11 3.383a1 1 0 00.95.688h3.571c.971 0 1.372 1.245.584 1.812l-2.872 2.067a1 1 0 00-.366 1.123l1.1 3.356c.302.92-.748 1.69-1.534 1.124l-2.909-2.094a1 1 0 00-1.168 0l-2.91 2.094c-.785.565-1.835-.204-1.533-1.124l1.1-3.356a1 1 0 00-.365-1.123L3.726 9.635c-.788-.567-.387-1.812.584-1.812h3.571a1 1 0 00.95-.688l1.11-3.383zm27.409 0c.302-.918 1.6-.918 1.901 0l1.11 3.383a1 1 0 00.95.688h3.57c.972 0 1.373 1.245.585 1.812l-2.873 2.067a1 1 0 00-.366 1.123l1.101 3.356c.302.92-.748 1.69-1.534 1.124l-2.91-2.094a1 1 0 00-1.167 0l-2.91 2.094c-.785.565-1.835-.204-1.534-1.124l1.101-3.356a1 1 0 00-.366-1.123l-2.872-2.067c-.788-.567-.387-1.812.584-1.812h3.57a1 1 0 00.95-.688l1.11-3.383z" fill="#070707"/><path d="M92.17 3.752c.301-.918 1.6-.918 1.9 0l1.11 3.383a1 1 0 00.95.688h3.571c.971 0 1.372 1.245.584 1.812l-2.872 2.067a1 1 0 00-.366 1.123l1.1 3.356c.302.92-.748 1.69-1.534 1.124l-2.909-2.094a1 1 0 00-1.168 0l-2.91 2.094c-.785.565-1.835-.204-1.533-1.124l1.1-3.356a1 1 0 00-.365-1.123l-2.873-2.067c-.788-.567-.387-1.812.584-1.812h3.571a1 1 0 00.95-.688l1.11-3.383zm-27.126.143c.234-.714 1.25-.714 1.485 0l1.368 4.168a.78.78 0 00.742.536h4.42c.758 0 1.072.963.46 1.404l-3.574 2.57a.773.773 0 00-.284.87l1.365 4.162c.235.714-.588 1.31-1.2.868l-3.581-2.577a.785.785 0 00-.917 0l-3.58 2.577c-.613.441-1.436-.154-1.202-.868l1.366-4.163a.773.773 0 00-.285-.868l-3.572-2.571c-.613-.441-.3-1.404.458-1.404h4.42a.78.78 0 00.743-.536l1.368-4.168zm54.536-.143c.301-.918 1.599-.918 1.9 0l1.11 3.383a1 1 0 00.95.688h3.571c.971 0 1.372 1.245.584 1.812l-2.872 2.067a1 1 0 00-.367 1.123l1.101 3.356c.302.92-.748 1.69-1.534 1.124l-2.909-2.094a1 1 0 00-1.168 0l-2.909 2.094c-.786.565-1.836-.204-1.535-1.124l1.101-3.356a1 1 0 00-.366-1.123l-2.872-2.067c-.788-.567-.387-1.812.584-1.812h3.571a1 1 0 00.95-.688l1.11-3.383z" fill="#E5E5E5"/></symbol><symbol id="icon-3-stars"><path d="M9.23 3.732c.302-.918 1.6-.918 1.9 0l1.11 3.383a1 1 0 00.95.688h3.571c.971 0 1.373 1.244.584 1.812l-2.871 2.066a1 1 0 00-.367 1.123l1.101 3.356c.302.92-.748 1.689-1.534 1.123l-2.91-2.093a1 1 0 00-1.167 0l-2.91 2.093c-.785.566-1.835-.204-1.534-1.123l1.101-3.356a1 1 0 00-.366-1.123L3.016 9.615c-.788-.568-.387-1.812.584-1.812h3.57a1 1 0 00.95-.688l1.11-3.383zm27.41 0c.301-.918 1.6-.918 1.9 0l1.11 3.383a1 1 0 00.95.688h3.57c.972 0 1.373 1.244.585 1.812l-2.872 2.066a1 1 0 00-.366 1.123l1.1 3.356c.303.92-.748 1.689-1.533 1.123l-2.91-2.093a1 1 0 00-1.168 0l-2.909 2.093c-.785.566-1.836-.204-1.534-1.123l1.1-3.356a1 1 0 00-.365-1.123l-2.872-2.066c-.788-.568-.387-1.812.584-1.812h3.57a1 1 0 00.95-.688l1.11-3.383zm27.41 0c.301-.918 1.6-.918 1.9 0l1.11 3.383a1 1 0 00.95.688h3.57c.972 0 1.373 1.244.585 1.812l-2.872 2.066a1 1 0 00-.366 1.123l1.1 3.356c.302.92-.748 1.689-1.534 1.123l-2.909-2.093a1 1 0 00-1.168 0l-2.91 2.093c-.785.566-1.835-.204-1.533-1.123l1.1-3.356a1 1 0 00-.366-1.123l-2.871-2.066c-.789-.568-.387-1.812.584-1.812h3.57a1 1 0 00.95-.688l1.11-3.383z" fill="#070707"/><path d="M92.885 3.888l1.11 3.382a1.5 1.5 0 001.425 1.033h3.57a.5.5 0 01.292.906l-2.871 2.066a1.5 1.5 0 00-.55 1.685l1.101 3.356a.5.5 0 01-.767.562l-2.91-2.094a1.5 1.5 0 00-1.751 0l-2.91 2.094a.5.5 0 01-.767-.562l1.101-3.356a1.5 1.5 0 00-.549-1.685L85.537 9.21a.5.5 0 01.292-.906h3.57a1.5 1.5 0 001.426-1.033l1.11-3.382a.5.5 0 01.95 0z" fill="#C4C4C4" stroke="#C4C4C4"/><path d="M118.869 3.732c.301-.918 1.599-.918 1.901 0l1.109 3.383a1 1 0 00.95.688h3.571c.971 0 1.372 1.244.584 1.812l-2.872 2.066a1 1 0 00-.366 1.123l1.101 3.356c.302.92-.749 1.689-1.534 1.123l-2.91-2.093a1 1 0 00-1.168 0l-2.909 2.093c-.785.566-1.836-.204-1.534-1.123l1.101-3.356a1 1 0 00-.366-1.123l-2.872-2.066c-.788-.568-.387-1.812.584-1.812h3.57a1 1 0 00.95-.688l1.11-3.383z" fill="#C4C4C4"/></symbol><symbol id="icon-4-stars"><path d="M9.23 3.732c.302-.918 1.6-.918 1.9 0l1.11 3.383a1 1 0 00.95.688h3.571c.971 0 1.373 1.244.584 1.812l-2.871 2.066a1 1 0 00-.367 1.123l1.101 3.356c.302.92-.748 1.689-1.534 1.123l-2.91-2.093a1 1 0 00-1.167 0l-2.91 2.093c-.785.566-1.835-.204-1.534-1.123l1.101-3.356a1 1 0 00-.366-1.123L3.016 9.615c-.788-.568-.387-1.812.584-1.812h3.57a1 1 0 00.95-.688l1.11-3.383zm27.41 0c.301-.918 1.6-.918 1.9 0l1.11 3.383a1 1 0 00.95.688h3.57c.972 0 1.373 1.244.585 1.812l-2.872 2.066a1 1 0 00-.366 1.123l1.1 3.356c.303.92-.748 1.689-1.533 1.123l-2.91-2.093a1 1 0 00-1.168 0l-2.909 2.093c-.785.566-1.836-.204-1.534-1.123l1.1-3.356a1 1 0 00-.365-1.123l-2.872-2.066c-.788-.568-.387-1.812.584-1.812h3.57a1 1 0 00.95-.688l1.11-3.383zm27.41 0c.3-.918 1.599-.918 1.9 0l1.11 3.383a1 1 0 00.95.688h3.57c.971 0 1.373 1.244.584 1.812l-2.871 2.066a1 1 0 00-.367 1.123l1.101 3.356c.302.92-.748 1.689-1.534 1.123l-2.91-2.093a1 1 0 00-1.167 0l-2.91 2.093c-.785.566-1.835-.204-1.534-1.123l1.101-3.356a1 1 0 00-.366-1.123l-2.872-2.066c-.788-.568-.387-1.812.584-1.812h3.57a1 1 0 00.95-.688l1.11-3.383zm27.41 0c.3-.918 1.599-.918 1.9 0l1.11 3.383a1 1 0 00.95.688h3.57c.971 0 1.373 1.244.584 1.812l-2.871 2.066a1 1 0 00-.367 1.123l1.101 3.356c.302.92-.748 1.689-1.534 1.123l-2.91-2.093a1 1 0 00-1.167 0l-2.91 2.093c-.785.566-1.835-.204-1.534-1.123l1.101-3.356a1 1 0 00-.366-1.123l-2.872-2.066c-.788-.568-.387-1.812.584-1.812h3.57a1 1 0 00.95-.688l1.11-3.383z" fill="#070707"/><path d="M118.869 3.732c.301-.918 1.599-.918 1.9 0l1.11 3.383a1 1 0 00.95.688h3.571c.971 0 1.372 1.244.584 1.812l-2.872 2.066a1 1 0 00-.366 1.123l1.101 3.356c.301.92-.749 1.689-1.535 1.123l-2.909-2.093a1 1 0 00-1.168 0l-2.909 2.093c-.786.566-1.836-.204-1.534-1.123l1.101-3.356a1.002 1.002 0 00-.367-1.123l-2.871-2.066c-.789-.568-.387-1.812.584-1.812h3.57a1 1 0 00.95-.688l1.11-3.383z" fill="#E5E5E5"/></symbol><symbol id="icon-5-stars"><path d="M9.23 3.732c.302-.918 1.6-.918 1.9 0l1.11 3.383a1 1 0 00.95.688h3.571c.971 0 1.373 1.244.584 1.812l-2.871 2.066a1 1 0 00-.367 1.123l1.101 3.356c.302.92-.748 1.689-1.534 1.123l-2.91-2.093a1 1 0 00-1.167 0l-2.91 2.093c-.785.566-1.835-.204-1.534-1.123l1.101-3.356a1 1 0 00-.366-1.123L3.016 9.615c-.788-.568-.387-1.812.584-1.812h3.57a1 1 0 00.95-.688l1.11-3.383zm27.41 0c.301-.918 1.6-.918 1.9 0l1.11 3.383a1 1 0 00.95.688h3.57c.972 0 1.373 1.244.585 1.812l-2.872 2.066a1 1 0 00-.366 1.123l1.1 3.356c.303.92-.748 1.689-1.533 1.123l-2.91-2.093a1 1 0 00-1.168 0l-2.909 2.093c-.785.566-1.836-.204-1.534-1.123l1.1-3.356a1 1 0 00-.365-1.123l-2.872-2.066c-.788-.568-.387-1.812.584-1.812h3.57a1 1 0 00.95-.688l1.11-3.383zm27.41 0c.301-.918 1.6-.918 1.9 0l1.11 3.383a1 1 0 00.95.688h3.57c.972 0 1.373 1.244.585 1.812l-2.872 2.066a1 1 0 00-.366 1.123l1.1 3.356c.302.92-.748 1.689-1.534 1.123l-2.909-2.093a1 1 0 00-1.168 0l-2.91 2.093c-.785.566-1.835-.204-1.533-1.123l1.1-3.356a1 1 0 00-.366-1.123l-2.871-2.066c-.789-.568-.387-1.812.584-1.812h3.57a1 1 0 00.95-.688l1.11-3.383zm27.41 0c.3-.918 1.599-.918 1.9 0l1.11 3.383a1 1 0 00.95.688h3.57c.971 0 1.373 1.244.584 1.812l-2.871 2.066a1 1 0 00-.367 1.123l1.101 3.356c.302.92-.748 1.689-1.534 1.123l-2.91-2.093a1 1 0 00-1.167 0l-2.91 2.093c-.785.566-1.835-.204-1.534-1.123l1.101-3.356a1 1 0 00-.366-1.123l-2.872-2.066c-.788-.568-.387-1.812.584-1.812h3.57a1 1 0 00.95-.688l1.11-3.383z" fill="#070707"/><path d="M118.869 3.732c.301-.918 1.599-.918 1.901 0l1.109 3.383a1 1 0 00.95.688h3.571c.971 0 1.372 1.244.584 1.812l-2.872 2.066a1 1 0 00-.366 1.123l1.101 3.356c.302.92-.749 1.689-1.534 1.123l-2.91-2.093a1 1 0 00-1.168 0l-2.909 2.093c-.785.566-1.836-.204-1.534-1.123l1.101-3.356a1 1 0 00-.366-1.123l-2.872-2.066c-.788-.568-.387-1.812.584-1.812h3.57a1 1 0 00.95-.688l1.11-3.383z" fill="#000"/></symbol><symbol id="icon-adaptive"><path d="M56.587.322H8.365A4.56 4.56 0 003.81 4.877v34.168c0 2.222 1.646 4.147 3.837 4.498l.82.655h47.31l1.528-.655a4.584 4.584 0 003.837-4.498V4.877A4.56 4.56 0 0056.587.322z" fill="#365E7D"/><path d="M8.155 39.045V4.877A4.56 4.56 0 0112.711.322H8.365A4.56 4.56 0 003.81 4.877v34.168c0 2.222 1.646 4.147 3.837 4.498l.82.655h4.346l-.82-.655c-2.191-.35-3.838-2.276-3.838-4.498z" fill="#2B4D66"/><path d="M56.496 8.37H8.729l-.827.862v29.44c0 .451.366.817.818.817h47.513a.817.817 0 00.817-.817V9.232l-.554-.863z" fill="#E4F6FF"/><path d="M13.215 38.672V9.232l.827-.863H8.729l-.827.863v29.44c0 .451.366.817.818.817h5.312a.818.818 0 01-.817-.817z" fill="#D3EFFB"/><path d="M13.215 4.385H8.72a.817.817 0 00-.818.817v4.03h5.313l.35-.373V4.644l-.35-.26z" fill="#DD636E"/><path d="M56.233 4.385H13.215v4.847H57.05v-4.03a.817.817 0 00-.817-.817z" fill="#B1E4F9"/><path d="M64.192 43.545H.76a.765.765 0 00-.761.768v2.642c0 1.96 1.588 3.563 3.53 3.563h57.893c1.941 0 3.53-1.603 3.53-3.563v-2.642a.764.764 0 00-.761-.768z" fill="#407093"/><path d="M7.902 46.953V44.31c0-.424.34-.768.761-.768H.761A.765.765 0 000 44.31v2.642c0 1.96 1.588 3.563 3.53 3.563h7.902c-1.941 0-3.53-1.603-3.53-3.563zm60.374 6.112V25.947l.724-.685v-3.046a2.833 2.833 0 00-2.833-2.833H48.78a2.833 2.833 0 00-2.833 2.833v3.046l.81.73V53.32l-.81.502v4.025a2.833 2.833 0 002.833 2.833h17.386A2.833 2.833 0 0069 57.847V53.82l-.724-.756z" fill="#365E7D"/><path d="M50.124 57.847V53.82l.81-.501V25.993l-.81-.73v-3.047a2.833 2.833 0 012.833-2.833h-4.176a2.833 2.833 0 00-2.833 2.833v3.046l.81.73V53.32l-.81.502v4.025a2.833 2.833 0 002.833 2.833h4.176a2.833 2.833 0 01-2.833-2.833z" fill="#294B64"/><path d="M31.782 33.067a8.707 8.707 0 100-17.415 8.707 8.707 0 000 17.415z" fill="#DD636E"/><path d="M26.407 24.36c0-4.24 3.03-7.769 7.04-8.547a8.707 8.707 0 100 17.092c-4.01-.777-7.04-4.306-7.04-8.545z" fill="#DA4A54"/><path d="M35.325 23.46l-4.468-3.048a1.091 1.091 0 00-1.706.902v6.094c0 .877.982 1.395 1.706.901l4.468-3.047a1.091 1.091 0 000-1.803z" fill="#F4FBFF"/><path d="M32.483 21.52l-1.626-1.108a1.091 1.091 0 00-1.706.902v6.094c0 .877.982 1.395 1.706.901l1.626-1.108v-5.68z" fill="#E4F6FF"/><path d="M45.948 29.232H69v24.59H45.948v-24.59z" fill="#90D8F9"/><path d="M45.948 29.232h4.176v24.59h-4.176v-24.59z" fill="#75CEF9"/><path d="M58.58 58.07h-2.213a1.041 1.041 0 110-2.082h2.214a1.041 1.041 0 110 2.083z" fill="#365E7D"/><path d="M57.474 49.063a7.578 7.578 0 100-15.157 7.578 7.578 0 000 15.157z" fill="#DD636E"/><path d="M52.759 41.486a7.58 7.58 0 016.146-7.44 7.578 7.578 0 100 14.883 7.58 7.58 0 01-6.146-7.443z" fill="#DA4A54"/><path d="M45.948 25.262h4.245v4.167h-4.245v-4.167z" fill="#DD636E"/><path d="M50.124 25.262v4.167H69v-4.167H50.124z" fill="#B1E4F9"/><path d="M60.558 40.701l-3.889-2.651a.95.95 0 00-1.485.784v5.304a.95.95 0 001.485.785l3.889-2.652a.95.95 0 000-1.57z" fill="#F4FBFF"/><path d="M58.048 38.99l-1.379-.94a.95.95 0 00-1.485.784v5.304a.95.95 0 001.485.785l1.379-.94v-4.994z" fill="#E4F6FF"/></symbol><symbol id="icon-bem"><path d="M0 9.286h16.131v5H0v-5zM0 0h16.131v5H0V0zm28.942 18.5H0v5h27.858c3.05 0 10.166.071 12.81 4.571v-2.785C39.38 20.857 35.585 18.5 28.942 18.5zm.068 9.286H0v5h27.858c6.778 0 11.048.285 12.81 1.285v-2.214c-1.356-3.5-7.05-4.071-11.658-4.071zm-.068 23.571H0v-5h27.858c3.05 0 10.166-.071 12.81-4.571v2.785C39.38 49 35.585 51.357 28.942 51.357zm.068-9.286H0v-5h27.858c6.778 0 11.048-.285 12.81-1.285V38c-1.356 3.5-7.05 4.071-11.658 4.071zM47.717 60H69v-3.072H48.327c-1.83 0-6.168-.07-7.727-2.714v1.715C41.346 58.57 43.65 60 47.717 60zm-.068-5.643h21.283v-3.071H48.327c-4.135 0-6.71-.143-7.727-.786v1.357c.813 2.143 4.27 2.5 7.05 2.5z" fill="#010101"/></symbol><symbol id="icon-browser"><path d="M3.529 69.654h63.25a2.875 2.875 0 002.875-2.875V15.03h-69v51.75a2.875 2.875 0 002.875 2.875z" fill="#40495A"/><path d="M66.779.654H3.529A2.875 2.875 0 00.654 3.53v11.5h69V3.53A2.875 2.875 0 0066.779.654z" fill="#EAE8E8"/><path d="M15.029 6.406H6.404v2.875h8.625V6.406zm48.875 0H20.78v2.875h43.125V6.406z" fill="#D7D4D4"/><path d="M12.154 58.154h-5.75v2.875h5.75v-2.875zm0-11.5h-5.75v2.875h5.75v-2.875zm0 5.75h-5.75v2.875h5.75v-2.875zm0-17.25h-5.75v2.875h5.75v-2.875zm0 5.75h-5.75v2.875h5.75v-2.875zm0-17.25h-5.75v2.875h5.75v-2.875zm0 5.75h-5.75v2.875h5.75v-2.875z" fill="#748191"/><path d="M20.779 40.904h-4.313v2.875h4.313v-2.875z" fill="#FFCD02"/><path d="M38.028 40.904H23.653v2.875h14.375v-2.875z" fill="#2ECC71"/><path d="M46.654 40.904h-5.75v2.875h5.75v-2.875z" fill="#FF6E40"/><path d="M58.154 40.904h-8.625v2.875h8.625v-2.875z" fill="#26C6DA"/><path d="M25.091 35.154h-8.625v2.875h8.625v-2.875z" fill="#2ECC71"/><path d="M42.341 35.154H27.966v2.875h14.375v-2.875z" fill="#26C6DA"/><path d="M53.841 35.154h-8.625v2.875h8.625v-2.875zm-28.75 11.5h-8.625v2.875h8.625v-2.875z" fill="#FF6E40"/><path d="M32.279 46.654h-4.313v2.875h4.313v-2.875z" fill="#26C6DA"/><path d="M40.904 46.654h-5.75v2.875h5.75v-2.875z" fill="#FFCD02"/><path d="M55.279 46.654h-11.5v2.875h11.5v-2.875z" fill="#2ECC71"/><path d="M61.028 46.654h-2.875v2.875h2.875v-2.875z" fill="#FFCD02"/><path d="M19.341 29.404h-2.875v2.875h2.875v-2.875z" fill="#26C6DA"/><path d="M45.216 29.404h-23v2.875h23v-2.875z" fill="#FFCD02"/><path d="M61.029 29.404H48.09v2.875h12.94v-2.875z" fill="#2ECC71"/><path d="M22.216 23.654h-5.75v2.875h5.75v-2.875zm14.375 0h-11.5v2.875h11.5v-2.875z" fill="#FF6E40"/><path d="M43.778 23.654h-4.312v2.875h4.312v-2.875z" fill="#FFCD02"/><path d="M63.904 23.654h-17.25v2.875h17.25v-2.875z" fill="#26C6DA"/><path d="M38.029 52.404H16.466v2.875H38.03v-2.875z" fill="#FFCD02"/><path d="M52.404 52.404h-11.5v2.875h11.5v-2.875z" fill="#26C6DA"/><path d="M63.903 52.404h-8.625v2.875h8.625v-2.875z" fill="#FF6E40"/><path d="M22.216 58.154h-5.75v2.875h5.75v-2.875z" fill="#26C6DA"/><path d="M33.716 58.154h-8.625v2.875h8.625v-2.875z" fill="#2ECC71"/><path d="M49.528 58.154H36.591v2.875h12.937v-2.875z" fill="#FF6E40"/><path d="M58.154 58.154h-5.75v2.875h5.75v-2.875z" fill="#FFCD02"/></symbol><symbol id="icon-css3"><path d="M4.313 0L9.81 54l24.69 6 24.68-5.996L64.688 0H4.312z" fill="#2196F3"/><path d="M52.931 17.659l-.694 6.784-2.096 20.336L34.5 48.54l-.013.004-15.633-3.765-1.091-10.635h7.659l.57 5.516 8.5 1.995.003-.004 8.513-1.995 1.16-9.191-26.772.064-.759-6.285 28.174-.289.57-6.727-29.498.07-.496-6.258h38.226l-.682 6.619z" fill="#FAFAFA"/></symbol><symbol id="icon-es6"><path d="M0 0h69v69H0V0z" fill="#F26522"/><path d="M28.445 43.114H39v-2.872h-7.294v-4.449h6.725v-2.871h-6.725v-4.165H39v-2.871H28.445v17.228zm24.652-4.682c0-3.441-.233-4.191-4.863-5.303-2.975-.725-3.026-.776-3.026-2.742 0-1.5.388-1.966 2.587-1.966 1.5 0 3.181.207 4.604.517l.362-2.742a23.507 23.507 0 00-5.019-.569c-4.371 0-5.794 1.552-5.794 4.682 0 3.647.57 4.45 4.734 5.38 3.104.673 3.156.828 3.156 2.742 0 1.656-.388 2.148-2.742 2.148-1.707 0-3.26-.31-4.863-.803l-.57 2.561c1.139.544 3.415 1.035 5.381 1.035 5.096 0 6.053-1.681 6.053-4.94zm6.002-6.416c0-2.638 1.267-3.156 4.32-3.156.543 0 1.681.078 2.431.233l.207-2.638c-.776-.181-2.018-.31-2.975-.31-4.708 0-7.14 1.448-7.14 6v6.286c0 2.975.88 4.941 5.33 4.941 4.06 0 5.302-2.017 5.302-4.708v-1.241c0-2.975-1.267-4.269-4.397-4.269-1.112 0-2.173.156-3.078.466v-1.604zm2.586 3.855c1.139 0 1.733.388 1.733 1.63v1.267c0 1.319-.517 1.888-2.146 1.888-1.63 0-2.173-.466-2.173-1.888v-2.354a6.777 6.777 0 012.586-.543z" fill="#fff"/></symbol><symbol id="icon-figma"><path d="M11.614 69.364c6.277 0 11.37-5.175 11.37-11.556V46.252h-11.37c-6.278 0-11.37 5.175-11.37 11.556 0 6.38 5.092 11.556 11.37 11.556z" fill="#0ACF83"/><path d="M.244 34.683c0-6.38 5.092-11.556 11.37-11.556h11.37v23.126h-11.37C5.336 46.24.244 41.063.244 34.683z" fill="#A259FF"/><path d="M.244 11.556C.244 5.176 5.336 0 11.614 0h11.37v23.126h-11.37c-6.278 0-11.37-5.19-11.37-11.57z" fill="#F24E1E"/><path d="M22.997 0h11.37c6.278 0 11.37 5.175 11.37 11.556 0 6.38-5.092 11.556-11.37 11.556h-11.37V0z" fill="#FF7262"/><path d="M45.737 34.683c0 6.38-5.092 11.556-11.37 11.556s-11.37-5.175-11.37-11.556c0-6.38 5.092-11.556 11.37-11.556s11.37 5.175 11.37 11.556z" fill="#1ABCFE"/></symbol><symbol id="icon-git"><path d="M67.699 31.43L37.573 1.303a4.444 4.444 0 00-6.284 0L25.033 7.56l7.936 7.936a5.275 5.275 0 016.683 6.727l7.648 7.649a5.286 5.286 0 015.463 8.732 5.287 5.287 0 01-8.63-5.75L37 25.72v18.77a5.288 5.288 0 11-4.348-.154V25.392a5.222 5.222 0 01-1.731-1.154 5.286 5.286 0 01-1.14-5.78l-7.822-7.824L1.302 31.29a4.445 4.445 0 000 6.286L31.429 67.7a4.444 4.444 0 006.284 0l29.986-29.985a4.447 4.447 0 000-6.287" fill="#DE4C36"/></symbol><symbol id="icon-github"><path d="M20.203 39.937C9.398 39.977.01 30.547.275 19.54.525 9.079 9.82.18 20.6.306c10.68.125 19.68 9.452 19.406 20.42-.258 10.43-9.171 19.274-19.804 19.211zM17.97 30.29c-.953-.304-1.922-.53-2.813-.93-1.812-.812-2.96-2.218-3.328-4.195-.234-1.28-.14-2.57.016-3.851.14-1.133.468-2.188 1.328-3.008.062-.063.07-.242.031-.336-.414-1.133-.367-2.266-.031-3.414.101-.344.265-.383.562-.289.782.242 1.414.71 1.953 1.305.29.312.547.656.82.984 1.626-1.055 6.274-1.055 7.977-.016.328-.382.64-.78.992-1.148.524-.54 1.133-.953 1.875-1.156.243-.07.375-.016.461.242.383 1.133.454 2.266 0 3.398-.086.227-.078.375.102.547.54.516.867 1.164 1.04 1.89.327 1.352.397 2.735.304 4.11-.102 1.477-.656 2.774-1.742 3.813-.914.867-2.008 1.383-3.211 1.687-.438.11-.875.188-1.344.282.601.921.75 1.921.726 2.968-.023 1.117-.007 2.242-.007 3.36 0 .132.007.273.015.414 7.133-1.297 14.336-8.399 13.547-18.235C36.5 9.328 28.195 2.125 18.586 3.047c-8.977.86-16.18 8.867-15.367 18.57.773 9.18 8.21 14.68 14.03 15.399v-2c-.32.047-.608.086-.89.117-2.093.235-3.757-.703-4.687-2.57-.508-1.024-1.047-2.047-2.047-2.703-.11-.07-.172-.203-.266-.32.086-.063.125-.094.172-.118a.84.84 0 01.188-.039c.703-.047 1.367.078 1.89.57.344.32.657.704.914 1.102.985 1.54 2.68 2.188 4.407 1.672.234-.07.367-.172.39-.445.047-.735.25-1.43.649-1.993z"/></symbol><symbol id="icon-gulp"><path d="M23.114 66.897l.636-11.025 1.755-3.118s-3.996 1.7-10.685 1.7c-6.69 0-10.626-1.669-10.626-1.669l1.968 3.402.696 10.71c0 1.148 3.639 2.078 8.128 2.078 4.489 0 8.128-.93 8.128-2.078zm-2.006-51.482l1.335-5.488 7.39-8.092L27.885.108l-7.824 8.62-1.55 6.558a99.62 99.62 0 00-3.5-.06c-8.24 0-14.92.977-14.92 2.182s6.68 2.182 14.92 2.182 14.921-.977 14.921-2.182c0-.888-3.623-1.652-8.824-1.993" fill="#D34A47"/><path d="M20.332 18.49s-.29.067-1.14.07c-.85.004-1.454-.005-1.694-.233a.404.404 0 01-.1-.265c0-.157.108-.25.244-.307l.128.21c-.056.02-.088.044-.088.07 0 .118.87.2 1.535.191.666-.008 1.47-.066 1.47-.183 0-.035-.06-.069-.166-.095l.128-.209c.173.056.323.164.323.35-.002.317-.389.365-.64.4" fill="#fff"/><path d="M29.818 1.85c.186-.223-.096-.794-.63-1.275-.533-.481-1.117-.69-1.303-.467-.186.223.096.795.63 1.276.534.48 1.117.69 1.303.466zm-7.06 38.119c-.175-1.754 3.686-4.293 2.695-4.375-2.133.127-3.195 2.602-4.268 5.193-.393.95-1.74 5-2.622 4.501-.882-.498 1.144-3.828 1.712-5.806-.655.5-3.059 2.443-3.678.623-.996.88-3.124 1.357-2.884-.955-.53.977-1.719 2.34-3.146 1.773-1.875-.743 1.086-6.956 1.822-6.642.736.313-.148 1.728-.38 2.278-.51 1.21-1.099 2.73-.705 3.04.673.534 2.507-2.016 2.548-2.072.343-.472 1.32-3.556 2.107-3.202.788.354-1.964 4.426-.935 5.234.207.164 1.056-.1 1.573-.681.334-.377.219-1.21 1.333-3.973 1.114-2.764 2.106-6.206 2.87-5.944.764.262.134 2.029-.14 2.687-1.285 3.091-3.51 8.198-2.46 7.81 1.048-.386 1.594-.408 2.621-1.659 1.027-1.25.98-3.31 1.664-3.266.685.044.57.704.404 1.207.674-.802 3.193-2.491 3.802-.818.72 1.98-3.605 4.842-2.527 4.696 1.052-.142 2.755-1.265 3.482-2.285l2.003-18.729s-2.015 1.735-14.832 1.735S.194 18.64.194 18.64L1.9 35.735c.905-2.676 3.053-8.087 6.44-7.906 1.54.083 3.596 3.17 1.835 3.274-.746.044-.822-1.54-1.705-1.774-.637-.168-1.524.371-2.097.955-1.143 1.165-3.602 5.758-3.277 8.048.414 2.92 3.872-1.014 4.457-2.182.412-.823.69-3.26 1.591-3.005.902.256-.078 2.771-.731 4.995-.734 2.498-1.12 5.133-2.04 4.83-.92-.303.579-3.527.524-4.093-.864.83-2.457 2.932-4.495 1.892L3.46 51.385s2.814 2.312 11.289 2.312 11.392-2.276 11.392-2.276l1.315-12.296c-1.076 1.09-4.48 3.025-4.697.844" fill="#D34A47"/></symbol><symbol id="icon-html"><path d="M3.639 0l5.965 54.082L34.735 60l24.776-5.918L65.477 0H3.639z" fill="#FD982C"/><path d="M34.735 0v60l24.776-5.918L65.477 0H34.735z" fill="#FA502E"/><path d="M53.121 18.678H26.726l.442 4.198h25.828l-2.087 23.46-16.195 4.096-17.383-4.7v-9.515h10.798v2.834l6.587 1.77 6.24-1.771.455-7.025H17.498l-2.7-22.379h38.323v9.032z" fill="#fff"/><path d="M34.735 9.646h18.386v9.032H34.735V9.646zm6.675 22.38l-.454 7.024-6.22 1.766v9.611l16.172-4.09 2.088-23.46h-18.26v9.149h6.675z" fill="#DEECF1"/></symbol><symbol id="icon-inst"><path stroke="null" d="M39.896 20.079c0 2.718-.055 5.814.016 8.533.117 4.812-3.276 8.457-7.127 10.113-1.547.664-3.172 1.164-4.852 1.164-5.258.007-10.597.078-15.855-.024-3.96-.078-7.661-1.66-9.997-4.926C.854 33.22.268 30.824.268 28.707c0-5.601-.074-11.27-.074-16.87 0-4.57 2.374-8.283 6.328-10.361C8.24.578 10.477.121 12.422.113c5.101 0 10.21-.031 15.312.016C31.695.16 35.37 1.823 37.806 5.01c1.36 1.781 2.016 4.197 2.016 6.447 0 2.844.074 5.769.074 8.62zm-36.302 0v8.593c0 1.282.297 2.485.96 3.57 1.743 2.852 4.376 4.243 7.641 4.298 5.242.078 10.492.03 15.742.015a8.54 8.54 0 003.704-.82c3.172-1.516 4.945-3.93 4.93-7.555-.032-5.547-.008-11.094-.008-16.64 0-1.57-.446-3.008-1.376-4.274-1.796-2.43-4.28-3.625-7.25-3.656-5.234-.063-10.468-.024-15.703-.016-1.117 0-2.195.227-3.242.617-2.875 1.07-5.547 3.782-5.422 7.774.094 2.703.024 5.398.024 8.094z"/><path d="M20.125 28.36c-5.039 0-9.102-4.016-9.11-9.016-.007-4.922 4.087-8.953 9.094-8.953 5.024-.008 9.102 4.015 9.11 8.976 0 4.953-4.07 8.985-9.094 8.992zm0-2.891c3.43 0 6.211-2.742 6.203-6.117-.008-3.344-2.789-6.079-6.203-6.079-3.43 0-6.226 2.727-6.226 6.094.007 3.375 2.796 6.11 6.226 6.102zM30.273 7.656c1.055 0 1.915.899 1.915 2-.008 1.102-.875 1.992-1.93 1.985-1.04-.008-1.89-.899-1.89-1.977-.009-1.102.85-2.008 1.905-2.008z"/></symbol><symbol id="icon-js"><path d="M0 0h69v69H0V0z" fill="#F0DB4F"/><path d="M63.353 52.544c-.505-3.149-2.558-5.792-8.638-8.258-2.112-.97-4.467-1.666-5.169-3.266-.249-.932-.282-1.456-.124-2.02.452-1.83 2.636-2.401 4.368-1.876 1.115.373 2.17 1.233 2.807 2.604 2.978-1.929 2.971-1.916 5.05-3.24-.76-1.181-1.167-1.725-1.666-2.23-1.79-2.001-4.23-3.03-8.133-2.952-.675.085-1.357.177-2.033.262-1.948.492-3.804 1.515-4.893 2.886-3.266 3.706-2.335 10.193 1.64 12.862 3.916 2.939 9.668 3.608 10.402 6.356.715 3.365-2.472 4.453-5.64 4.067-2.335-.486-3.634-1.673-5.038-3.83-2.584 1.495-2.584 1.495-5.24 3.023.63 1.377 1.292 2 2.348 3.194 4.998 5.07 17.506 4.82 19.749-2.853.092-.263.695-2.02.21-4.73zM37.51 31.713h-6.454c0 5.575-.027 11.11-.027 16.685 0 3.549.184 6.802-.393 7.8-.945 1.96-3.391 1.718-4.506 1.337-1.135-.557-1.712-1.351-2.381-2.473-.184-.321-.321-.57-.367-.59-1.752 1.07-3.496 2.145-5.247 3.214.872 1.79 2.157 3.345 3.804 4.355 2.46 1.476 5.765 1.928 9.222 1.135 2.25-.656 4.19-2.014 5.207-4.08 1.47-2.709 1.155-5.988 1.142-9.615.032-5.916 0-11.833 0-17.769z" fill="#323330"/></symbol><symbol id="icon-less"><path d="M66.427 14.634c-.329-.765-.488-1.67-.522-2.523-.084-2.098-.012-4.203-.1-6.301-.08-1.88-.702-3.572-2.38-4.54-1.476-.853-3.187-.938-4.83-.958v3.353c.548.02.413.038.547.046 2.206.116 2.945.87 2.973 3.224.021 1.75.007 3.503.033 5.253.032 2.124.327 4.151 2.133 5.492.03.023.027.107.045.205-.919.702-1.646 1.607-1.857 2.841-.17.999-.267 2.02-.296 3.036-.053 1.837.002 3.678-.047 5.515-.039 1.438-.672 2.114-1.974 2.434-.49.122-1.01.165-1.557.24v3.344a41.933 41.933 0 002.403-.205c2.823-.328 4.413-1.909 4.739-4.856.102-.924.09-1.865.11-2.798.035-1.75.017-3.507.163-5.245.148-1.774 1.347-2.755 2.99-2.657v-3.506c-1.095.211-2.105-.298-2.573-1.394zm-51.47 7.148c0-6.804-.171-13.608-.171-20.411V.301c-1.643 0-3.41-.018-5.143.008-.704.01-1.324.075-2.022.177-2.67.391-3.958 1.74-4.431 4.603-.137.825-.11 1.684-.121 2.529-.022 1.606.021 3.212-.003 4.818-.03 2.022-.915 3.589-2.832 3.708-.068.004.314.088-.234.139v3.125c2.19.37 2.888 1.322 3.033 3.51.023.35.03.701.033 1.052.018 1.956-.003 3.915.08 5.867.077 1.822.453 3.45 2.054 4.407 1.495.893 3.562.965 4.657 1.012v-3.337c0-.028-.115-.054-.222-.061-2.376-.156-2.911-.85-2.926-3.408-.009-1.694.058-3.388.033-5.082-.031-2.128-.32-4.146-2.111-5.493-.028-.02 0-.108-.01-.225 1.205-.82 1.845-2.072 2.019-3.59a25.86 25.86 0 00.142-2.533c.028-1.752-.001-3.505.043-5.255.031-1.23.761-2.127 1.693-2.329.882-.191 1.34-.185 2.982-.274V4.88c0 6.074-.201 12.147-.171 18.221.01 2.08.224 4.132 2.297 5.03 1.127.488 2.334.639 3.629.967.216-1.362.287-2.492.464-3.61-2.386-.736-2.761-1.118-2.761-3.706zm14.608-11.72c-4.02-2.067-8.898-.26-10.77 4.078-1.41 3.266-1.359 6.628-.118 9.94.673 1.796 1.89 3.14 3.545 3.93 3.233 1.545 6.505 1.17 9.765.086.176-.06.4-.423.379-.617-.111-.978-.296-1.947-.46-2.958-.777.21-1.425.426-2.088.56-1.75.354-3.505.353-5.209-.376-1.682-.719-2.812-2.786-2.53-4.554h11.43c.139-1.767.084-4.198-.616-6.207-.624-1.796-1.702-3.044-3.328-3.881zm-.024 7.144H22.03c.003-2.357 1.787-4.472 4.127-4.423 2.055.042 3.477 2.066 3.384 4.423zm30.726 7.234c.269-2.978-.567-4.653-3.031-5.947-.874-.459-1.802-.799-2.692-1.224-.666-.318-1.337-.64-1.96-1.043-.607-.392-.861-1.043-.772-1.804.089-.753.538-1.249 1.188-1.39.787-.172 1.611-.32 2.403-.25 1.118.098 2.22.407 3.375.633l.729-3.427c-1.561-.256-3.017-.586-4.488-.711-1.636-.139-3.228.153-4.726.984-3.163 1.753-3.221 7.138-.314 8.905.868.528 1.798.94 2.701 1.402.952.487 1.937.911 2.848 1.475.69.429.938 1.176.753 2.048-.172.81-.742 1.17-1.412 1.24-1.018.104-2.063.204-3.071.075-1.214-.155-2.403-.552-3.646-.855l-.635 3.412c2.92 1.179 5.81 1.372 8.728.676 2.442-.582 3.833-2.118 4.022-4.199zm-15.561-5.569c-1.073-.612-2.227-1.058-3.334-1.604-.687-.338-1.415-.633-2.02-1.102-1.165-.903-.949-2.635.408-3.098.778-.266 1.658-.348 2.476-.283 1.114.09 2.213.4 3.374.627l.689-3.268c-.59-.172-1.124-.36-1.67-.484-2.175-.492-4.361-.683-6.503.127-1.84.696-3.117 1.998-3.37 4.189-.282 2.446.472 4.377 2.572 5.539.841.465 1.742.803 2.6 1.234.857.43 1.731.84 2.527 1.38.608.413.848 1.11.677 1.918-.17.8-.713 1.203-1.387 1.278-1.02.112-2.064.216-3.073.09-1.22-.153-2.411-.551-3.677-.857-.187.95-.406 1.907-.542 2.878-.03.21.189.616.373.685 2.948 1.1 5.95 1.257 8.948.307 1.79-.567 3.043-1.798 3.295-3.902.287-2.39-.243-4.445-2.363-5.654z" fill="#2A4D80"/></symbol><symbol id="icon-photoshop"><path d="M3.188 3.018h63.249v63.1H3.188v-63.1z" fill="#0C0824"/><path d="M3.188 3.016h63.249v63.1H3.188v-63.1zM.312 69.066h69v-69h-69v69zm46.519-40.692c-2.272 0-3.049 1.18-3.049 2.154 0 1.061.518 1.8 3.566 3.42 4.515 2.241 5.915 4.392 5.915 7.549 0 4.718-3.507 7.254-8.25 7.254a12.245 12.245 0 01-5.895-1.264c-.203-.089-.23-.235-.23-.473v-4.34c0-.295.143-.384.345-.234a10.477 10.477 0 005.78 1.738c2.271 0 3.22-.973 3.22-2.3 0-1.061-.66-2.004-3.566-3.538-4.083-2.004-5.779-4.044-5.779-7.43 0-3.805 2.903-6.959 7.935-6.959a12.937 12.937 0 015.146.826.666.666 0 01.288.589v4.044c0 .235-.143.384-.431.296a9.522 9.522 0 00-5.003-1.327l.008-.005zm-24.727 3.508c.66.058 1.178.058 2.329.058 3.364 0 6.525-1.208 6.525-5.896 0-3.746-2.272-5.631-6.094-5.631-1.15 0-2.242.058-2.76.088v11.381zm-5.118-15.67c0-.207.401-.354.633-.354 1.841-.088 4.571-.147 7.418-.147 7.964 0 11.07 4.482 11.07 10.204 0 7.489-5.292 10.704-11.787 10.704-1.092 0-1.467-.058-2.243-.058v11.323c0 .235-.086.353-.345.353h-4.399c-.229 0-.345-.088-.345-.353v-31.66l-.002-.012z" fill="#31C5F0"/></symbol><symbol id="icon-pp"><path d="M32.914 68.226c17.77 0 32.175-15.1 32.175-33.726C65.089 15.874 50.684.774 32.914.774 15.144.774.739 15.874.739 34.5c0 18.626 14.405 33.726 32.175 33.726z" fill="#D81F26"/><path d="M32.914 69c-8.79 0-17.063-3.593-23.267-10.111C3.427 52.368 0 43.712 0 34.5s3.427-17.885 9.647-24.389C15.866 3.592 24.124 0 32.914 0S49.976 3.592 56.18 10.111c6.22 6.52 9.647 15.176 9.647 24.389S62.4 52.385 56.18 58.889C49.976 65.406 41.704 69 32.914 69zm0-67.452C15.585 1.548 1.477 16.321 1.477 34.5c0 18.18 14.108 32.951 31.437 32.951 17.328 0 31.436-14.787 31.436-32.951S50.257 1.548 32.914 1.548z" fill="#3A1811"/><path d="M32.914 65.764a.375.375 0 01-.37-.387c0-.217.163-.387.37-.387C48.957 64.99 62 51.317 62 34.5c0-.216.163-.387.37-.387.206 0 .369.17.369.387 0 17.235-13.37 31.264-29.826 31.264zM59.77 22.159a.35.35 0 01-.34-.232 31.435 31.435 0 00-2.924-5.28 30.214 30.214 0 00-5.806-6.288 28.73 28.73 0 00-6.78-4.103c-.193-.077-.281-.31-.208-.511a.37.37 0 01.488-.217 29.416 29.416 0 016.958 4.212 31.334 31.334 0 015.953 6.442 32.33 32.33 0 013 5.404.394.394 0 01-.178.51.267.267 0 01-.163.063z" fill="#3A1811"/><path d="M32.914 61.211c14.074 0 25.483-11.959 25.483-26.71 0-14.753-11.41-26.712-25.483-26.712C18.84 7.79 7.43 19.75 7.43 34.5c0 14.752 11.409 26.711 25.483 26.711z" fill="#FAF5AE"/><path d="M32.914 61.986C18.45 61.986 6.692 49.66 6.692 34.5S18.45 7.015 32.914 7.015c14.462 0 26.221 12.325 26.221 27.485 0 15.144-11.759 27.486-26.221 27.486zm0-53.423c-13.636 0-24.745 11.63-24.745 25.937 0 14.308 11.095 25.937 24.745 25.937S57.658 48.808 57.658 34.5c0-14.308-11.094-25.937-24.744-25.937z" fill="#3A1811"/><path d="M32.914 58.424a.375.375 0 01-.37-.387c0-.217.163-.387.37-.387 4.83 0 9.425-1.61 13.266-4.646a.362.362 0 01.517.078c.118.17.088.418-.074.541-3.974 3.144-8.716 4.8-13.71 4.8zm17.609-8.919a.475.475 0 01-.237-.078.39.39 0 01-.059-.542C53.344 44.766 55 39.795 55 34.515c0-4.94-1.463-9.647-4.24-13.626-.118-.17-.089-.418.074-.542a.362.362 0 01.517.077c2.866 4.12 4.373 8.981 4.373 14.091 0 5.451-1.7 10.592-4.934 14.85a.31.31 0 01-.266.14zM20.756 15.082a.38.38 0 01-.31-.17.423.423 0 01.103-.542 21.984 21.984 0 0112.365-3.81c2.94 0 5.806.573 8.51 1.72.191.077.28.309.206.51a.37.37 0 01-.488.217 21.15 21.15 0 00-8.228-1.657 21.23 21.23 0 00-11.966 3.686.437.437 0 01-.192.046z" fill="#3A1811"/><path d="M32.914 53.593c10.06 0 18.214-8.549 18.214-19.093 0-10.545-8.155-19.093-18.214-19.093-10.06 0-18.215 8.548-18.215 19.093 0 10.544 8.155 19.093 18.215 19.093z" fill="#D81F26"/><path d="M32.914 54.367c-10.46 0-18.954-8.92-18.954-19.867 0-10.948 8.51-19.867 18.954-19.867 10.46 0 18.953 8.919 18.953 19.867 0 10.947-8.494 19.867-18.953 19.867zm0-38.186c-9.632 0-17.476 8.223-17.476 18.319 0 10.096 7.844 18.318 17.476 18.318 9.632 0 17.476-8.222 17.476-18.318 0-10.112-7.83-18.319-17.476-18.319z" fill="#3A1811"/><path d="M32.914 51.023c-3.723 0-7.327-1.378-10.164-3.887a.389.389 0 01-.044-.542.348.348 0 01.517-.046c2.703 2.4 6.146 3.716 9.69 3.716 3.31 0 6.457-1.1 9.086-3.205 2.541-2.029 4.447-4.909 5.333-8.099.399-1.44.606-2.927.606-4.444 0-.217.162-.387.37-.387.206 0 .368.17.368.387 0 1.58-.206 3.159-.635 4.66-.945 3.361-2.925 6.38-5.599 8.502-2.762 2.183-6.056 3.345-9.528 3.345zm12.512-25.535a.38.38 0 01-.295-.155c-1.995-2.927-4.92-5.048-8.199-6.008a.387.387 0 01-.251-.48c.059-.202.251-.325.458-.264 3.457 1.007 6.5 3.237 8.612 6.303a.407.407 0 01-.088.542c-.089.03-.163.062-.237.062z" fill="#3A1811"/><path d="M32.914 46.16c6.143 0 11.124-5.22 11.124-11.66s-4.98-11.66-11.124-11.66S21.79 28.06 21.79 34.5s4.98 11.66 11.124 11.66z" fill="#FAF5AE"/><path d="M32.914 46.934c-6.545 0-11.863-5.575-11.863-12.434 0-6.86 5.319-12.435 11.863-12.435S44.776 27.64 44.776 34.5s-5.318 12.434-11.862 12.434zm0-23.336c-5.732 0-10.386 4.878-10.386 10.886 0 6.008 4.654 10.886 10.386 10.886 5.732 0 10.385-4.878 10.385-10.886 0-6.008-4.653-10.886-10.385-10.886z" fill="#3A1811"/><path d="M32.914 43.977a.375.375 0 01-.37-.387c0-.217.163-.387.37-.387 4.58 0 8.317-3.903 8.317-8.718 0-.217.162-.387.37-.387.206 0 .368.17.368.387 0 5.25-4.062 9.492-9.055 9.492zm7.194-14.184a.38.38 0 01-.31-.17 8.57 8.57 0 00-2.955-2.803.397.397 0 01-.147-.527c.103-.186.325-.263.502-.155a9.391 9.391 0 013.22 3.05.395.395 0 01-.103.543.465.465 0 01-.207.062z" fill="#3A1811"/><path d="M32.914 39.982c2.888 0 5.23-2.454 5.23-5.482 0-3.027-2.342-5.481-5.23-5.481-2.889 0-5.23 2.454-5.23 5.481 0 3.028 2.341 5.482 5.23 5.482z" fill="#BE1E2D"/><path d="M32.913 40.74c-3.294 0-5.968-2.803-5.968-6.256 0-3.453 2.674-6.256 5.968-6.256 3.295 0 5.969 2.803 5.969 6.256 0 3.453-2.674 6.256-5.968 6.256zm0-10.948c-2.466 0-4.49 2.106-4.49 4.708 0 2.586 2.009 4.707 4.49 4.707 2.482 0 4.491-2.106 4.491-4.707 0-2.602-2.009-4.707-4.49-4.707z" fill="#3A1811"/><path d="M66.108 35.615h-32.13c-.592 0-1.064-.496-1.064-1.115 0-.62.472-1.115 1.063-1.115h32.131c.59 0 1.064.495 1.064 1.115-.015.604-.488 1.115-1.064 1.115z" fill="#A67A44"/><path d="M66.108 36.002h-32.13c-.784 0-1.434-.666-1.434-1.502s.636-1.502 1.433-1.502h32.131c.783 0 1.433.666 1.433 1.502s-.65 1.502-1.433 1.502zm-32.13-2.23c-.385 0-.695.325-.695.728 0 .403.31.728.694.728h32.131c.384 0 .694-.325.694-.728 0-.403-.31-.728-.694-.728h-32.13z" fill="#3A1811"/><path d="M65.015 33.385h-7.18c-.354 0-.516-.449-.265-.696l3.22-3.113a.414.414 0 01.266-.108h7.18c.354 0 .517.449.266.697l-3.22 3.112a.414.414 0 01-.267.108z" fill="#00AEEF"/><path d="M65.015 33.772h-7.18a.776.776 0 01-.709-.496.793.793 0 01.192-.867l3.22-3.112a.72.72 0 01.518-.217h7.18c.31 0 .59.201.709.496a.793.793 0 01-.193.867l-3.22 3.112a.72.72 0 01-.517.217zm-3.96-3.918l-3.22 3.113s-.014.015 0 .015c0 .016 0 .016.015.016h7.194l3.206-3.113s.015-.015 0-.015c0-.016 0-.016-.015-.016h-7.18z" fill="#3A1811"/><path d="M65.015 35.615h-7.18c-.354 0-.516.45-.265.697l3.22 3.113a.414.414 0 00.266.108h7.18c.354 0 .517-.45.266-.697l-3.22-3.112a.347.347 0 00-.267-.109z" fill="#00AEEF"/><path d="M68.235 39.904h-7.18a.746.746 0 01-.516-.217l-3.22-3.112a.787.787 0 01-.193-.868.74.74 0 01.71-.495h7.179c.192 0 .37.077.517.217l3.22 3.112c.237.217.31.558.193.867a.776.776 0 01-.71.496zM57.85 36.002c-.015 0-.015 0-.015.015v.016l3.22 3.112h7.195c.015 0 .015 0 .015-.015v-.016l-3.22-3.112H57.85zm1.3-.976H44.038a.375.375 0 01-.37-.387c0-.217.163-.387.37-.387h15.098c.206 0 .369.17.369.387a.355.355 0 01-.355.387zm5.791-2.322h-3.737a.375.375 0 01-.37-.387c0-.217.163-.387.37-.387h3.442l1.448-1.394a.358.358 0 01.517.016c.133.155.133.402-.015.542l-1.655 1.61z" fill="#3A1811"/><path d="M64.66 36.977h-3.456a.375.375 0 01-.37-.387c0-.217.163-.387.37-.387h3.457c.206 0 .369.17.369.387a.375.375 0 01-.37.387z" fill="#3A1811"/></symbol><symbol id="icon-sass"><path d="M59.398 22.97c-2.412.01-4.501.458-6.253 1.125-.647-.99-1.294-1.855-1.402-2.502-.121-.75-.27-1.209-.121-2.105.148-.897.822-2.168.822-2.273-.014-.093-.148-.552-1.537-.563-1.387-.01-2.587.209-2.722.49a9.982 9.982 0 00-.58 1.595c-.242.98-2.776 4.451-4.218 6.275-.472-.709-.876-1.334-.957-1.835-.121-.75-.27-1.209-.121-2.105.148-.896.822-2.168.822-2.272-.014-.094-.148-.553-1.536-.563-1.389-.01-2.588.208-2.723.49-.135.281-.283.948-.58 1.595-.283.646-3.652 6.441-4.528 7.953a29.716 29.716 0 01-1.119 1.803c-.283.417-.013.031-.04.073l-.378.552v.01c-.188.261-.39.511-.485.511-.067 0-.202-.698.027-1.657.499-2.012 1.712-5.149 1.698-5.264 0-.052.23-.604-.782-.886-.983-.281-1.334.188-1.415.188-.08 0-.148.167-.148.167s1.092-3.534-2.089-3.534c-1.995 0-4.744 1.679-6.105 3.21-.863.366-2.696 1.137-4.637 1.96-.741.313-1.51.647-2.237.949l-.148-.125C12.05 23.052 4.92 20.8 5.218 16.527c.108-1.553.809-5.65 13.694-10.61 10.553-4.066 19.003-2.95 20.472-.47 2.09 3.544-4.515 10.132-15.486 11.08-4.178.365-6.375-.886-6.927-1.355-.58-.49-.66-.51-.876-.417-.35.146-.135.584 0 .845.323.656 1.67 1.824 3.962 2.408 2.008.51 6.914.792 12.844-.98 6.645-1.991 11.834-7.516 10.31-12.133-1.55-4.701-11.63-6.244-21.16-3.628-5.673 1.564-11.82 4.003-16.24 7.203C.555 12.264-.281 15.58.069 16.955c1.227 4.91 9.974 8.11 13.478 10.475-.175.073-.337.146-.485.209-1.752.667-8.424 3.367-10.095 6.223-1.887 3.23.297 5.555 1.752 5.868 4.502.97 9.111-.771 11.605-3.638 2.48-2.866 2.183-6.587 1.037-8.286l-.04-.063 1.375-.625c.89-.407 1.765-.782 2.533-1.105-.43.906-.74 1.98-.902 3.544-.19 1.834.781 4.21 2.062 5.149.566.406 1.24.417 1.657.417 1.483 0 2.157-.949 2.898-2.085.917-1.386 1.725-2.991 1.725-2.991s-1.01 4.346 1.752 4.346c1.011 0 2.022-1.01 2.48-1.532v.01s.027-.03.081-.104c.057-.065.11-.13.162-.198v-.02c.404-.543 1.307-1.783 2.655-3.837 1.739-2.647 3.41-5.962 3.41-5.962s.162.813.66 2.148c.297.792.944 1.657 1.442 2.501-.404.438-.647.688-.647.688l.014.01a32.37 32.37 0 01-1.065 1.043c-1.374 1.272-3.019 2.72-3.234 3.138-.256.49-.203.854.296 1.146.364.209 1.01.25 1.698.209 1.24-.063 2.103-.303 2.534-.449a9.896 9.896 0 002.183-.886c1.348-.771 2.17-1.866 2.09-3.325-.04-.802-.378-1.595-.796-2.345.122-.136.243-.271.364-.417 2.13-2.408 3.774-5.055 3.774-5.055s.162.813.66 2.147c.256.677.769 1.418 1.227 2.147-1.995 1.262-3.248 2.72-3.68 3.68-.795 1.772-.175 2.574.998 2.762.525.083 1.28-.104 1.846-.292.7-.177 1.55-.48 2.332-.928 1.348-.77 2.642-1.845 2.574-3.293-.04-.668-.27-1.324-.58-1.95 1.699-.542 3.895-.854 6.685-.594 5.998.542 7.184 3.44 6.955 4.65-.229 1.208-1.482 1.875-1.9 2.084-.418.198-.553.27-.513.417.054.219.243.208.607.167.499-.063 3.154-.99 3.262-3.221.161-2.867-3.356-5.994-9.597-5.963zM13.143 35.03c-1.981 1.677-4.771 2.313-5.957 1.771-1.28-.573-.782-3.044 1.658-4.826 1.482-1.084 3.41-2.085 4.676-2.7.283-.135.715-.333 1.227-.573a1.39 1.39 0 01.135-.063c.094-.041.202-.093.31-.145.902 2.543.04 4.773-2.05 6.535zm14.488-7.62c-.687 1.302-2.143 4.648-3.018 4.46-.755-.156-1.213-2.689-.149-5.19.54-1.261 1.685-2.762 2.359-3.346 1.091-.938 2.277-1.251 2.574-.865.35.5-1.334 4.127-1.765 4.94zm11.955 4.42c-.296.114-.566.197-.687.135-.095-.042.121-.198.121-.198s1.496-1.24 2.09-1.814c.336-.334.74-.72 1.172-1.157v.125c0 1.5-1.86 2.502-2.696 2.908zm9.219-1.627c-.216-.125-.189-.51.539-1.72.283-.48.93-1.282 2.049-2.043.134.313.215.615.202.897-.014 1.876-1.739 2.574-2.79 2.866z" fill="#CF649A"/></symbol><symbol id="icon-skype"><path d="M1.04 18.537c.039-.43.117-1.258.18-2.086a1.148 1.148 0 00-.094-.586C-2.007 9.615 1.32 2.162 8.079.373c2.672-.711 5.258-.391 7.742.843.195.094.445.149.656.125 5-.554 10.257-.496 14.178 2.676 3.657 2.96 5.057 7.957 5.697 12.637.211 1.547.196 3.086.008 4.633-.031.234.024.523.14.726 3.774 6.617-.226 15-7.75 16.18-2.64.414-5.124-.094-7.421-1.477a1.12 1.12 0 00-.61-.148c-7.554.726-14.43-3.047-17.843-9.797-1.172-2.32-1.797-5.008-1.836-8.234zm2.735.406c.055 3.922 1.448 6.547 4.112 9.508 1.907 2.118 3.656 3.369 5.636 4.207 1.981.838 4.193 1.068 7.025.751.352-.039 1.05.329 1.355.532 1.219.804 2.168 1.268 3.337 1.427 1.17.16 2.382.016 3.777-.394 5.898-1.743 8.077-6.58 4.842-11.83-.172-.273-.215-1.03-.152-1.397.375-2.101.022-4.118-.447-6.204C31.44 7.52 26.023 3.134 17.468 4.33c-.453.062-2.161-.122-2.56-.333-4.172-2.274-7.85-1.46-10.546 2.454-2.18 3.172-2.22 5.357-.462 8.764.125.25.073 1.208.034 1.497-.117.906-.073 1.325-.16 2.23z"/><path d="M18.624 28.919c-1.602-.016-3.164-.211-4.648-.86-.907-.398-1.72-.93-2.391-1.656-.617-.664-.992-1.43-.992-2.351-.008-1.469 1.46-2.352 2.742-1.625.305.172.57.453.82.71.266.274.5.563.727.868 1.062 1.406 2.547 1.75 4.195 1.656.781-.039 1.508-.258 2.149-.734.734-.555 1.109-1.274.945-2.203-.156-.883-.797-1.32-1.586-1.54-1.531-.421-3.07-.796-4.61-1.18-1.203-.304-2.382-.64-3.406-1.39-1.226-.89-1.875-2.11-1.953-3.61-.14-2.765 1.07-4.71 3.703-5.679 3.18-1.172 6.313-.992 9.29.719.554.32 1.062.758 1.5 1.226.312.336.53.813.656 1.258.257.906-.008 1.586-.688 2.016-.765.484-1.734.469-2.406-.102-.445-.375-.836-.82-1.242-1.242-.453-.469-1-.789-1.625-.96-1.078-.298-2.157-.345-3.235-.04-.664.188-1.203.555-1.515 1.195-.414.836-.25 1.641.554 2.102.618.36 1.313.633 2.008.812 1.453.383 2.946.657 4.399 1.04.695.187 1.39.453 2.023.804 2.102 1.164 2.813 3.125 2.563 5.352-.29 2.539-1.946 4.32-4.649 4.992-1.078.266-2.203.352-3.305.516-.015-.024-.015-.063-.023-.094z"/></symbol><symbol id="icon-vk"><path d="M7.443 0C3.366 0 0 3.366 0 7.443v25.114C0 36.634 3.366 40 7.443 40h25.114C36.634 40 40 36.634 40 32.557V7.443C40 3.366 36.634 0 32.557 0H7.443zm0 3.636h25.114a3.795 3.795 0 013.807 3.807v25.114a3.795 3.795 0 01-3.807 3.807H7.443a3.795 3.795 0 01-3.807-3.807V7.443a3.795 3.795 0 013.807-3.807zm12.046 9.489c-1.335-.013-2.485.026-3.125.34-.426.21-.769.655-.569.683.248.033.84.164 1.137.568.384.522.34 1.705.34 1.705s.224 3.234-.51 3.636c-.504.274-1.186-.332-2.671-2.898-.762-1.314-1.307-2.727-1.307-2.727s-.143-.31-.34-.455a1.487 1.487 0 00-.569-.227l-3.523.057s-.544-.006-.738.227c-.175.207-.057.625-.057.625s2.813 6.548 5.966 9.83c2.894 3.007 6.193 2.784 6.193 2.784h1.477s.453-.037.682-.284c.21-.228.17-.682.17-.682s-.016-1.98.91-2.273c.912-.289 2.108 1.931 3.352 2.784.94.646 1.648.511 1.648.511l3.295-.056s1.733-.11.91-1.477c-.068-.111-.453-.994-2.444-2.841-2.084-1.935-1.83-1.655.682-5 1.529-2.039 2.18-3.274 1.988-3.807-.181-.508-1.307-.341-1.307-.341h-3.75s-.305-.01-.51.114c-.203.12-.342.397-.342.397s-.574 1.556-1.363 2.898C23.448 20.045 22.773 20.174 22.5 20c-.634-.41-.454-1.624-.454-2.5 0-2.742.43-3.908-.796-4.204-.407-.099-.72-.16-1.761-.171z"/></symbol><symbol id="icon-webpack"><path d="M63.227 52.882l-27.52 15.579V56.327l17.121-9.429 10.399 5.984zm1.886-1.703V18.625l-10.07 5.822v20.92l10.065 5.806.005.006zm-59.34 1.703L33.266 68.45V56.327L16.14 46.898 5.773 52.882zm-1.886-1.703V18.625l10.07 5.822v20.92L3.886 51.18zm1.18-34.662L33.293.539v11.73l-18.086 9.946-.146.08-9.994-5.778zm58.855 0L35.708.539v11.73l18.085 9.94.146.081 9.994-5.773h-.01z" fill="#8ED6FB"/><path d="M33.292 53.566l-16.92-9.31V25.833l16.92 9.746v17.988zm2.415 0l16.921-9.299V25.832l-16.92 9.746v17.988zM17.52 23.718l16.98-9.347 16.981 9.347-16.98 9.79-16.98-9.79z" fill="#1C78C0"/></symbol></svg>